<svg xmlns="http://www.w3.org/2000/svg" version="1.1" xmlns:xlink="http://www.w3.org/1999/xlink" xmlns:svgjs="http://svgjs.dev/svgjs" viewBox="0 0 800 800"><defs><linearGradient x1="50%" y1="0%" x2="50%" y2="100%" id="ccchaos-grad"><stop stop-color="hsl(206, 75%, 49%)" stop-opacity="1" offset="0%"></stop><stop stop-color="hsl(331, 90%, 56%)" stop-opacity="1" offset="100%"></stop></linearGradient></defs><g stroke-width="2" stroke="url(#ccchaos-grad)" fill="none" stroke-linecap="round"><path d="M381.7 104.43C391.14 102.75 400.6 101.9 410.07 101.88 419.56 102.25 429.07 103.48 438.61 105.53 448.2 107.97 457.85 111.19 467.56 115.15 477.35 119.42 487.25 124.33 497.23 129.83 507.35 135.51 517.58 141.68 527.92 148.26 538.38 154.9 548.95 161.86 559.58 169.08 570.3 176.23 581.02 183.59 591.66 191.11 602.25 198.48 612.65 205.98 622.73 213.58 632.55 221.01 641.87 228.53 650.53 236.14 658.68 243.57 665.96 251.11 672.24 258.77 677.77 266.26 682.12 273.91 685.21 281.71 687.45 289.38 688.39 297.24 688.02 305.3 686.95 313.27 684.73 321.47 681.49 329.91 677.95 338.3 673.74 346.94 669.07 355.86 664.71 364.74 660.35 373.92 656.21 383.38 653.02 392.83 650.44 402.59 648.62 412.65 648.14 422.71 648.53 432.85 649.72 443.03 652.09 453.22 654.99 463.45 658.23 473.7 662.15 483.95 665.99 494.19 669.53 504.39 673.13 514.57 676.03 524.67 678.08 534.62 679.67 544.51 680.14 554.21 679.44 563.64 678.02 572.92 675.35 581.86 671.48 590.38 666.86 598.65 661.13 606.41 654.4 613.56 647.06 620.37 638.89 626.49 630.03 631.84 620.8 636.79 611.05 640.92 600.93 644.19 590.65 647.06 580.13 649.09 569.49 650.29 558.82 651.2 548.12 651.4 537.45 650.94 526.84 650.44 516.29 649.5 505.83 648.21 495.47 647.24 485.2 646.19 475.03 645.2 464.95 644.88 454.95 644.85 445.04 645.22 435.19 646.51 425.4 648.33 415.69 650.7 406.01 654.03 396.37 657.84 386.81 662.06 377.25 666.98 367.97 671.92 358.98 676.69 349.97 681.67 341.25 686.12 332.81 689.89 324.36 693.38 316.19 695.9 308.32 697.36 300.42 698.2 292.8 697.83 285.49 696.26 278.13 693.94 271.04 690.42 264.24 685.78 257.36 680.45 250.74 674.11 244.37 666.89 237.89 659.17 231.62 650.73 225.56 641.72 219.35 632.43 213.31 622.72 207.45 612.72 201.39 602.64 195.49 592.39 189.74 582.05 183.78 571.76 177.97 561.46 172.34 551.19 166.52 541.05 160.89 530.95 155.49 520.94 149.96 511.06 144.71 501.24 139.78 491.49 134.82 481.85 130.24 472.25 126.1 462.68 122.03 453.19 118.46 443.7 115.46 434.21 112.62 424.76 110.4 415.29 108.84 405.8 107.51 396.32 106.87 386.8 106.96 377.26 107.3 367.73 108.35 358.39 110.07 349.28 111.98 340.17 114.51 331.29 117.6 322.66 120.79 314.04 124.48 305.7 128.6 297.64 132.73 289.61 137.22 281.89 142.03 274.51 146.74 267.16 151.72 260.15 156.92 253.51 161.94 246.89 167.16 240.63 172.54 234.75 177.71 228.86 183.04 223.32 188.53 218.14 193.81 212.91 199.27 207.99 204.9 203.37 210.35 198.63 216.02 194.13 221.9 189.87 227.66 185.41 233.67 181.11 239.94 176.97 246.13 172.55 252.62 168.24 259.39 164.02 266.12 159.49 273.16 155.03 280.5 150.66 287.82 145.98 295.45 141.42 303.36 137 311.27 132.35 319.47 127.92 327.93 123.77 336.39 119.54 345.11 115.69 354.08 112.33 363.04 109.06 372.25 106.4 381.69 104.43" stroke-dasharray="0 0" transform="rotate(0, 400, 400)" opacity="0.60"></path><path d="M384.86 115.15C394.01 113.48 403.21 112.61 412.45 112.53 421.71 112.82 431.03 113.92 440.4 115.82 449.81 118.08 459.31 121.11 468.87 124.83 478.51 128.87 488.26 133.54 498.09 138.78 508.01 144.21 518.04 150.13 528.14 156.47 538.32 162.88 548.56 169.63 558.81 176.66 569.08 183.66 579.29 190.87 589.36 198.26 599.33 205.53 609.02 212.95 618.34 220.48 627.36 227.85 635.84 235.33 643.63 242.91 650.91 250.32 657.34 257.84 662.77 265.46 667.52 272.94 671.17 280.55 673.63 288.29 675.34 295.92 675.87 303.71 675.23 311.68 673.99 319.56 671.74 327.65 668.6 335.94 665.24 344.18 661.3 352.65 656.96 361.36 652.97 370.04 648.97 378.98 645.18 388.18 642.27 397.36 639.9 406.82 638.2 416.55 637.72 426.28 638.01 436.05 639.01 445.85 641.09 455.64 643.65 465.46 646.53 475.25 650.07 485.03 653.55 494.78 656.8 504.45 660.16 514.08 662.92 523.59 664.95 532.93 666.63 542.19 667.32 551.22 666.97 559.95 666.01 568.53 663.92 576.74 660.72 584.5 656.85 592.04 651.92 599.04 646.04 605.45 639.58 611.55 632.3 616.99 624.31 621.69 615.93 626.04 607.01 629.64 597.65 632.44 588.09 634.92 578.24 636.64 568.19 637.63 558.08 638.4 547.87 638.55 537.63 638.14 527.42 637.76 517.21 636.99 507.07 635.96 496.98 635.26 486.97 634.51 477.04 633.83 467.18 633.8 457.4 634.03 447.72 634.63 438.08 636.08 428.51 637.99 419.05 640.37 409.6 643.63 400.22 647.31 390.94 651.33 381.65 656 372.65 660.66 363.95 665.16 355.24 669.86 346.81 674.08 338.67 677.68 330.51 681.06 322.63 683.55 315.04 685.09 307.41 686.09 300.05 685.99 292.97 684.78 285.84 682.91 278.96 679.92 272.34 675.87 265.64 671.19 259.17 665.54 252.92 659.03 246.55 652.03 240.38 644.31 234.4 636 228.26 627.38 222.28 618.32 216.46 608.91 210.45 599.38 204.58 589.62 198.86 579.73 192.95 569.84 187.19 559.88 181.59 549.92 175.83 540.03 170.27 530.17 164.92 520.36 159.48 510.65 154.3 500.98 149.45 491.39 144.58 481.89 140.09 472.42 136.02 463.02 132.05 453.67 128.56 444.35 125.62 435.06 122.86 425.81 120.69 416.56 119.17 407.32 117.89 398.1 117.28 388.88 117.38 379.68 117.73 370.48 118.77 361.5 120.46 352.77 122.35 344.04 124.84 335.56 127.88 327.34 131.03 319.13 134.66 311.2 138.72 303.56 142.79 295.94 147.22 288.62 151.97 281.64 156.63 274.66 161.56 268.01 166.7 261.72 171.68 255.42 176.86 249.46 182.2 243.85 187.33 238.2 192.63 232.88 198.07 227.88 203.31 222.8 208.71 218 214.27 213.47 219.65 208.8 225.23 204.35 230.99 200.1 236.62 195.64 242.48 191.33 248.58 187.16 254.58 182.72 260.84 178.37 267.37 174.12 273.85 169.57 280.6 165.09 287.64 160.71 294.65 156.05 301.95 151.51 309.53 147.12 317.09 142.54 324.94 138.17 333.06 134.1 341.17 129.95 349.54 126.19 358.18 122.9 366.81 119.71 375.7 117.1 384.85 115.15" stroke-dasharray="0 0" transform="rotate(4.04, 400, 400)" opacity="0.83"></path><path d="M388.69 125.88C397.56 124.22 406.5 123.33 415.5 123.19 424.52 123.4 433.62 124.38 442.79 126.13 451.99 128.22 461.29 131.03 470.65 134.53 480.08 138.33 489.6 142.74 499.2 147.71 508.86 152.89 518.59 158.54 528.36 164.62 538.17 170.79 548 177.31 557.77 184.12 567.52 190.92 577.15 197.96 586.57 205.18 595.85 212.33 604.81 219.62 613.33 227.04 621.55 234.34 629.19 241.75 636.12 249.25 642.57 256.62 648.17 264.1 652.83 271.66 656.86 279.1 659.86 286.66 661.77 294.34 663.03 301.91 663.22 309.63 662.36 317.49 661.02 325.28 658.78 333.24 655.75 341.39 652.59 349.48 648.93 357.77 644.93 366.28 641.28 374.75 637.64 383.45 634.18 392.38 631.54 401.3 629.37 410.45 627.78 419.83 627.31 429.22 627.5 438.62 628.33 448 630.14 457.39 632.38 466.76 634.92 476.07 638.08 485.37 641.21 494.6 644.16 503.71 647.26 512.78 649.86 521.7 651.83 530.4 653.54 539.02 654.4 547.38 654.33 555.41 653.75 563.3 652.15 570.8 649.54 577.84 646.34 584.67 642.16 590.98 637.07 596.7 631.45 602.14 625.01 606.95 617.88 611.08 610.35 614.91 602.25 618.04 593.68 620.46 584.89 622.61 575.75 624.1 566.36 624.93 556.87 625.62 547.22 625.78 537.49 625.45 527.75 625.2 517.97 624.64 508.22 623.86 498.49 623.42 488.8 622.97 479.18 622.59 469.6 622.82 460.09 623.3 450.67 624.1 441.29 625.68 431.99 627.66 422.78 630.05 413.59 633.24 404.48 636.78 395.46 640.61 386.45 645.03 377.73 649.42 369.3 653.65 360.86 658.08 352.7 662.07 344.83 665.49 336.93 668.74 329.3 671.2 321.95 672.78 314.55 673.91 307.42 674.04 300.54 673.16 293.6 671.68 286.89 669.17 280.43 665.68 273.86 661.6 267.51 656.61 261.37 650.78 255.09 644.49 249 637.48 243.07 629.87 236.99 621.94 231.06 613.54 225.27 604.76 219.31 595.82 213.48 586.62 207.8 577.23 201.94 567.8 196.22 558.26 190.68 548.68 184.99 539.13 179.49 529.56 174.22 520.03 168.86 510.56 163.78 501.12 159.01 491.74 154.25 482.43 149.86 473.16 145.89 463.96 142.01 454.8 138.62 445.68 135.76 436.62 133.08 427.58 130.98 418.57 129.5 409.61 128.27 400.65 127.69 391.73 127.79 382.85 128.15 373.97 129.18 365.34 130.84 356.97 132.7 348.6 135.14 340.49 138.12 332.65 141.21 324.82 144.78 317.26 148.76 310.01 152.76 302.75 157.13 295.79 161.8 289.16 166.4 282.52 171.26 276.19 176.34 270.19 181.28 264.17 186.41 258.46 191.7 253.07 196.81 247.63 202.07 242.49 207.46 237.62 212.67 232.67 218.03 227.96 223.53 223.49 228.85 218.87 234.35 214.44 240.03 210.19 245.56 205.73 251.3 201.4 257.25 197.2 263.1 192.73 269.18 188.36 275.51 184.07 281.77 179.52 288.29 175.04 295.07 170.66 301.81 166.03 308.83 161.52 316.11 157.19 323.37 152.67 330.91 148.39 338.72 144.39 346.51 140.34 354.57 136.67 362.9 133.45 371.22 130.34 379.82 127.79 388.68 125.88" stroke-dasharray="0 0" transform="rotate(8.08, 400, 400)" opacity="0.61"></path><path d="M393.03 136.6C401.62 134.96 410.29 134.05 419.04 133.86 427.8 133.99 436.65 134.86 445.57 136.45 454.53 138.37 463.57 140.99 472.68 144.25 481.84 147.8 491.07 151.96 500.35 156.65 509.67 161.56 519.03 166.94 528.39 172.74 537.75 178.65 547.08 184.91 556.3 191.47 565.47 198.05 574.46 204.88 583.19 211.91 591.74 218.89 599.94 226.03 607.66 233.31 615.07 240.49 621.88 247.79 627.99 255.2 633.65 262.49 638.49 269.88 642.43 277.36 645.81 284.74 648.24 292.23 649.66 299.81 650.54 307.31 650.46 314.93 649.44 322.68 648.03 330.36 645.84 338.2 642.96 346.18 640.01 354.12 636.64 362.23 632.97 370.52 629.66 378.78 626.35 387.24 623.21 395.88 620.82 404.52 618.84 413.35 617.37 422.38 616.9 431.41 617.01 440.41 617.67 449.38 619.23 458.34 621.18 467.24 623.38 476.06 626.18 484.86 628.97 493.56 631.61 502.1 634.45 510.6 636.86 518.91 638.73 526.98 640.44 534.97 641.39 542.67 641.53 550.02 641.26 557.24 640.08 564.06 637.98 570.42 635.38 576.58 631.87 582.24 627.5 587.33 622.65 592.18 617.02 596.44 610.7 600.06 604.01 603.44 596.73 606.18 588.96 608.28 580.94 610.18 572.54 611.49 563.86 612.23 555.04 612.89 546.01 613.08 536.85 612.87 527.65 612.78 518.37 612.43 509.06 611.91 499.76 611.73 490.47 611.56 481.21 611.46 471.98 611.94 462.8 612.64 453.69 613.62 444.61 615.31 435.59 617.35 426.67 619.74 417.76 622.84 408.93 626.25 400.19 629.88 391.45 634.06 383 638.19 374.84 642.15 366.66 646.32 358.76 650.08 351.13 653.32 343.47 656.44 336.06 658.83 328.92 660.44 321.73 661.67 314.78 661.99 308.07 661.38 301.29 660.26 294.73 658.19 288.39 655.2 281.95 651.69 275.69 647.31 269.63 642.14 263.44 636.53 257.4 630.21 251.53 623.3 245.5 616.06 239.61 608.34 233.86 600.21 227.95 591.9 222.16 583.28 216.51 574.45 210.71 565.54 205.06 556.48 199.57 547.33 193.96 538.18 188.55 528.99 183.37 519.79 178.12 510.63 173.14 501.49 168.48 492.38 163.83 483.33 159.55 474.31 155.69 465.35 151.93 456.43 148.64 447.55 145.87 438.73 143.27 429.94 141.25 421.2 139.83 412.52 138.64 403.84 138.09 395.22 138.21 386.66 138.57 378.1 139.59 369.8 141.21 361.78 143.03 353.75 145.42 345.98 148.32 338.5 151.34 331.01 154.83 323.8 158.72 316.88 162.65 309.96 166.93 303.32 171.52 296.99 176.05 290.64 180.84 284.59 185.85 278.85 190.74 273.06 195.81 267.57 201.05 262.36 206.12 257.09 211.34 252.08 216.69 247.33 221.86 242.47 227.18 237.82 232.63 233.39 237.92 228.81 243.36 224.39 248.96 220.12 254.41 215.66 260.06 211.31 265.89 207.07 271.61 202.59 277.55 198.19 283.71 193.89 289.78 189.33 296.11 184.86 302.67 180.5 309.18 175.91 315.96 171.46 322.99 167.18 329.98 162.75 337.24 158.55 344.77 154.64 352.27 150.7 360.05 147.13 368.09 143.99 376.12 140.97 384.43 138.48 393.02 136.6" stroke-dasharray="0 0" transform="rotate(12.12, 400, 400)" opacity="0.14"></path><path d="M397.68 147.32C405.99 145.71 414.38 144.79 422.85 144.55 431.34 144.6 439.91 145.36 448.55 146.8 457.21 148.55 465.95 150.96 474.75 154 483.57 157.31 492.45 161.19 501.34 165.61 510.26 170.23 519.17 175.32 528.05 180.83 536.9 186.46 545.67 192.44 554.28 198.73 562.81 205.07 571.12 211.65 579.13 218.45 586.94 225.23 594.36 232.18 601.29 239.28 607.91 246.31 613.93 253.47 619.26 260.73 624.17 267.91 628.31 275.19 631.6 282.56 634.4 289.84 636.33 297.22 637.35 304.69 637.91 312.09 637.61 319.6 636.49 327.21 635.06 334.76 632.95 342.45 630.24 350.26 627.52 358.03 624.42 365.95 621.08 374.01 618.09 382.04 615.11 390.24 612.27 398.59 610.12 406.93 608.32 415.44 606.95 424.09 606.49 432.75 606.53 441.35 607.04 449.88 608.37 458.4 610.03 466.83 611.93 475.15 614.38 483.44 616.84 491.6 619.18 499.57 621.74 507.5 623.95 515.21 625.7 522.66 627.34 530.02 628.34 537.09 628.63 543.79 628.6 550.37 627.76 556.55 626.09 562.28 624.01 567.83 621.09 572.89 617.37 577.42 613.24 581.75 608.36 585.53 602.81 588.72 596.91 591.71 590.42 594.14 583.44 595.99 576.2 597.7 568.56 598.88 560.59 599.57 552.47 600.24 544.11 600.52 535.57 600.44 526.96 600.52 518.23 600.39 509.43 600.12 500.62 600.2 491.78 600.29 482.94 600.46 474.11 601.16 465.3 602.05 456.54 603.19 447.8 604.98 439.11 607.06 430.5 609.43 421.9 612.45 413.36 615.71 404.91 619.16 396.46 623.1 388.28 626.97 380.37 630.68 372.45 634.59 364.78 638.12 357.38 641.18 349.94 644.15 342.74 646.47 335.79 648.08 328.78 649.38 322 649.85 315.44 649.48 308.8 648.68 302.37 646.99 296.13 644.47 289.79 641.48 283.62 637.67 277.62 633.11 271.5 628.15 265.53 622.5 259.7 616.27 253.73 609.72 247.88 602.67 242.17 595.2 236.32 587.54 230.58 579.55 224.99 571.3 219.26 562.95 213.68 554.42 208.27 545.76 202.76 537.08 197.45 528.31 192.37 519.52 187.24 510.73 182.38 501.94 177.84 493.16 173.33 484.42 169.18 475.7 165.43 467.03 161.8 458.39 158.62 449.8 155.95 441.26 153.46 432.75 151.51 424.29 150.15 415.9 149.02 407.52 148.5 399.2 148.63 390.96 148.99 382.72 149.98 374.75 151.56 367.05 153.34 359.34 155.66 351.9 158.48 344.74 161.43 337.57 164.82 330.67 168.62 324.06 172.45 317.43 176.64 311.08 181.13 305.02 185.57 298.93 190.28 293.11 195.2 287.58 200.02 282 205.03 276.68 210.21 271.62 215.23 266.48 220.4 261.58 225.71 256.91 230.85 252.12 236.13 247.53 241.53 243.12 246.78 238.56 252.17 234.14 257.7 229.86 263.1 225.39 268.66 221.02 274.39 216.76 280.02 212.27 285.83 207.87 291.85 203.55 297.78 199.01 303.94 194.57 310.31 190.23 316.63 185.7 323.19 181.32 330 177.11 336.76 172.77 343.77 168.67 351.04 164.86 358.29 161.03 365.8 157.56 373.57 154.52 381.33 151.59 389.36 149.17 397.67 147.33" stroke-dasharray="0 0" transform="rotate(16.16, 400, 400)" opacity="0.88"></path><path d="M402.43 158.05C410.45 156.46 418.55 155.53 426.72 155.24 434.91 155.23 443.17 155.88 451.48 157.17 459.81 158.76 468.2 160.97 476.63 163.77 485.06 166.84 493.53 170.46 501.98 174.59 510.43 178.92 518.84 183.71 527.17 188.91 535.46 194.24 543.62 199.93 551.59 205.93 559.45 211.99 567.06 218.31 574.33 224.85 581.4 231.39 588.05 238.12 594.21 245 600.06 251.84 605.33 258.82 609.94 265.9 614.17 272.92 617.66 280.05 620.38 287.27 622.68 294.42 624.17 301.66 624.86 308.98 625.16 316.25 624.7 323.61 623.52 331.06 622.11 338.46 620.11 345.98 617.59 353.59 615.1 361.17 612.29 368.87 609.27 376.69 606.58 384.48 603.91 392.41 601.36 400.45 599.43 408.48 597.8 416.64 596.54 424.92 596.08 433.19 596.05 441.37 596.43 449.45 597.54 457.53 598.95 465.48 600.55 473.29 602.68 481.07 604.82 488.69 606.86 496.1 609.14 503.46 611.13 510.59 612.72 517.44 614.28 524.2 615.28 530.66 615.66 536.76 615.51 545.53 611.07 560.74 606.73 567.04 601.14 572.59 586.18 580.87 577.09 583.62 570.62 585.19 563.73 586.31 556.48 587 549.08 587.72 541.4 588.09 533.51 588.18 525.53 588.44 517.39 588.53 509.15 588.51 500.87 588.83 492.52 589.16 484.15 589.57 475.77 590.47 467.38 591.54 459.01 592.82 450.66 594.68 442.33 596.79 434.05 599.14 425.78 602.05 417.56 605.17 409.41 608.44 401.26 612.14 393.35 615.77 385.7 619.23 378.03 622.88 370.6 626.18 363.41 629.06 356.19 631.87 349.19 634.11 342.4 635.7 335.57 637.04 328.95 637.63 322.51 637.47 316.01 636.93 309.69 635.59 303.54 633.48 297.31 630.96 291.22 627.68 285.29 623.7 279.24 619.34 273.33 614.34 267.55 608.76 261.64 602.88 255.85 596.5 250.19 589.7 244.41 582.69 238.74 575.33 233.22 567.7 227.58 559.95 222.09 551.98 216.78 543.86 211.38 535.68 206.19 527.4 201.22 519.05 196.24 510.7 191.52 502.31 187.11 493.92 182.74 485.54 178.73 477.17 175.12 468.84 171.63 460.52 168.57 452.25 166.01 444.03 163.62 435.83 161.76 427.67 160.47 419.6 159.4 411.53 158.91 403.52 159.04 395.6 159.41 387.68 160.37 380.02 161.9 372.63 163.62 365.24 165.87 358.11 168.6 351.25 171.46 344.37 174.76 337.76 178.44 331.42 182.17 325.06 186.25 318.96 190.62 313.13 194.97 307.27 199.58 301.66 204.41 296.3 209.15 290.89 214.08 285.71 219.17 280.77 224.14 275.75 229.26 270.94 234.5 266.32 239.6 261.59 244.84 257.03 250.19 252.64 255.4 248.09 260.74 243.67 266.21 239.38 271.55 234.9 277.05 230.53 282.7 226.25 288.23 221.77 293.95 217.37 299.84 213.06 305.65 208.55 311.66 204.14 317.88 199.86 324.03 195.4 330.4 191.09 337 186.97 343.55 182.74 350.35 178.75 357.38 175.05 364.38 171.34 371.64 167.98 379.15 165.04 386.64 162.2 394.4 159.85 402.42 158.05" stroke-dasharray="0 0" transform="rotate(20.200000000000003, 400, 400)" opacity="0.52"></path><path d="M407.07 168.77C414.79 167.22 422.59 166.28 430.43 165.95 438.29 165.87 446.21 166.42 454.16 167.57 462.12 168.99 470.12 171.01 478.12 173.58 486.12 176.4 494.12 179.76 502.08 183.6 510.02 187.63 517.88 192.12 525.63 197 533.32 202.02 540.84 207.4 548.14 213.08 555.32 218.84 562.21 224.87 568.75 231.12 575.08 237.39 581 243.86 586.42 250.49 591.55 257.1 596.13 263.85 600.07 270.72 603.68 277.55 606.61 284.49 608.82 291.51 610.68 298.49 611.81 305.55 612.23 312.69 612.33 319.79 611.77 326.97 610.57 334.23 609.22 341.45 607.34 348.77 605.03 356.16 602.77 363.52 600.24 370.99 597.53 378.53 595.14 386.07 592.76 393.7 590.47 401.42 588.75 409.13 587.28 416.93 586.12 424.81 585.67 432.69 585.59 440.45 585.84 448.08 586.76 455.7 587.92 463.17 589.26 470.47 591.07 477.75 592.91 484.84 594.66 491.7 596.67 498.52 598.42 505.09 599.85 511.36 601.76 520.51 602.73 536.94 601.53 544.1 599.25 550.64 590.91 561.27 584.93 565.31 577.95 568.73 561.11 573.29 551.5 574.57 544.81 575.35 537.82 575.85 530.59 576.1 523.26 576.55 515.74 576.85 508.07 577.07 500.37 577.61 492.55 578.18 484.68 578.81 476.79 579.88 468.85 581.11 460.91 582.5 452.97 584.41 445.03 586.53 437.12 588.84 429.21 591.66 421.33 594.63 413.49 597.71 405.65 601.19 398.03 604.57 390.64 607.79 383.23 611.19 376.04 614.27 369.06 616.96 362.05 619.62 355.24 621.75 348.62 623.31 341.96 624.66 335.48 625.35 329.18 625.36 322.81 625.04 316.6 624.01 310.55 622.27 304.41 620.17 298.41 617.37 292.54 613.92 286.58 610.13 280.74 605.73 275.02 600.77 269.19 595.54 263.48 589.81 257.89 583.66 252.19 577.31 246.61 570.59 241.18 563.58 235.65 556.45 230.27 549.07 225.07 541.51 219.82 533.89 214.76 526.13 209.94 518.27 205.11 510.4 200.55 502.46 196.29 494.49 192.09 486.53 188.23 478.55 184.77 470.6 181.42 462.65 178.5 454.73 176.05 446.85 173.78 438.99 172.01 431.17 170.79 423.42 169.77 415.68 169.32 408 169.46 400.4 169.82 392.8 170.76 385.46 172.23 378.37 173.9 371.28 176.06 364.44 178.7 357.86 181.46 351.26 184.64 344.92 188.2 338.82 191.81 332.71 195.77 326.83 200.01 321.2 204.25 315.53 208.74 310.1 213.45 304.89 218.1 299.63 222.93 294.58 227.93 289.73 232.83 284.8 237.87 280.06 243.05 275.49 248.09 270.81 253.27 266.28 258.56 261.9 263.72 257.37 269.01 252.95 274.42 248.65 279.71 244.18 285.14 239.81 290.7 235.53 296.17 231.06 301.79 226.69 307.57 222.41 313.27 217.95 319.15 213.6 325.22 209.37 331.22 205 337.43 200.79 343.83 196.77 350.2 192.66 356.79 188.79 363.59 185.2 370.37 181.62 377.38 178.38 384.63 175.54 391.86 172.8 399.34 170.52 407.06 168.77" stroke-dasharray="0 0" transform="rotate(24.24, 400, 400)" opacity="0.20"></path><path d="M411.4 179.49C418.81 177.98 426.27 177.04 433.77 176.67 441.27 176.53 448.81 176.98 456.36 178 463.92 179.26 471.49 181.08 479.03 183.43 486.56 186.01 494.06 189.1 501.48 192.65 508.88 196.39 516.16 200.56 523.3 205.12 530.36 209.82 537.23 214.86 543.85 220.21 550.35 225.65 556.54 231.36 562.36 237.3 568 243.27 573.21 249.45 577.93 255.79 582.4 262.14 586.34 268.63 589.69 275.25 592.74 281.84 595.17 288.54 596.95 295.33 598.44 302.1 599.28 308.95 599.48 315.87 599.45 322.76 598.83 329.73 597.66 336.76 596.38 343.76 594.65 350.84 592.55 357.98 590.53 365.11 588.27 372.31 585.86 379.56 583.75 386.81 581.65 394.13 579.61 401.51 578.09 408.88 576.77 416.31 575.7 423.78 575.27 431.25 575.13 438.59 575.28 445.76 576.02 452.93 576.95 459.93 578.04 466.73 579.57 473.52 581.11 480.09 582.59 486.43 585.07 495.74 588.8 512.86 589.67 520.56 589.86 527.77 587.15 540.14 584.14 545.22 580.16 549.73 569.01 556.57 561.98 558.94 556.93 560.38 551.46 561.49 545.61 562.28 539.62 563.16 533.31 563.79 526.73 564.23 520.06 564.85 513.16 565.37 506.09 565.81 498.98 566.56 491.72 567.33 484.37 568.15 477 569.39 469.55 570.74 462.06 572.23 454.57 574.18 447.05 576.29 439.52 578.55 432 581.26 424.48 584.09 416.97 586.99 409.46 590.24 402.15 593.39 395.02 596.38 387.89 599.53 380.94 602.39 374.17 604.9 367.39 607.39 360.77 609.41 354.32 610.92 347.84 612.26 341.51 613.01 335.34 613.15 329.11 613.03 323.02 612.25 317.06 610.83 311.04 609.11 305.13 606.75 299.35 603.78 293.49 600.51 287.73 596.67 282.09 592.3 276.36 587.68 270.74 582.58 265.24 577.07 259.66 571.35 254.19 565.28 248.87 558.89 243.48 552.38 238.24 545.61 233.18 538.64 228.08 531.59 223.18 524.37 218.52 517.05 213.87 509.68 209.47 502.23 205.39 494.73 201.36 487.22 197.67 479.67 194.37 472.13 191.18 464.59 188.4 457.06 186.08 449.56 183.92 442.06 182.25 434.6 181.1 427.2 180.15 419.8 179.73 412.46 179.88 405.19 180.23 397.92 181.14 390.89 182.56 384.1 184.15 377.31 186.23 370.75 188.76 364.43 191.41 358.1 194.47 352 197.89 346.13 201.38 340.23 205.2 334.56 209.3 329.12 213.41 323.63 217.77 318.34 222.34 313.27 226.88 308.14 231.6 303.19 236.49 298.43 241.29 293.59 246.25 288.9 251.33 284.38 256.31 279.74 261.41 275.24 266.63 270.87 271.73 266.36 276.95 261.96 282.29 257.66 287.52 253.22 292.88 248.86 298.36 244.59 303.74 240.16 309.27 235.82 314.95 231.59 320.54 227.2 326.3 222.92 332.22 218.78 338.09 214.51 344.13 210.41 350.36 206.5 356.54 202.52 362.93 198.78 369.51 195.32 376.07 191.87 382.84 188.76 389.82 186.02 396.79 183.39 403.98 181.2 411.39 179.5" stroke-dasharray="0 0" transform="rotate(28.28, 400, 400)" opacity="0.29"></path><path d="M415.22 190.22C422.3 188.74 429.41 187.8 436.53 187.4 443.66 187.21 450.8 187.57 457.92 188.45 465.05 189.56 472.15 191.2 479.2 193.33 486.24 195.67 493.21 198.49 500.07 201.75 506.89 205.19 513.58 209.05 520.1 213.28 526.53 217.64 532.75 222.35 538.7 227.35 544.53 232.45 550.04 237.82 555.18 243.42 560.15 249.07 564.71 254.92 568.8 260.95 572.66 266.99 576.02 273.19 578.84 279.51 581.41 285.83 583.41 292.26 584.83 298.78 586.02 305.29 586.63 311.88 586.68 318.55 586.55 325.19 585.91 331.91 584.8 338.68 583.62 345.43 582.06 352.24 580.17 359.1 578.39 365.96 576.4 372.86 574.27 379.81 572.43 386.75 570.58 393.73 568.79 400.75 567.45 407.77 566.27 414.81 565.29 421.87 564.87 428.93 564.69 435.83 564.74 442.56 565.31 449.27 566.05 455.8 566.9 462.13 568.16 468.43 569.43 474.52 570.64 480.35 572.74 488.92 575.94 504.58 576.72 511.58 575.9 523.74 568.98 538.09 564.6 541.48 559.41 544.46 546.45 548.75 538.85 550.2 533.51 551.18 527.86 551.96 521.92 552.57 515.89 553.37 509.62 554.08 503.15 554.73 496.63 555.67 489.94 556.63 483.13 557.62 476.29 558.98 469.34 560.44 462.33 562 455.31 563.97 448.23 566.06 441.11 568.27 433.99 570.86 426.85 573.54 419.69 576.27 412.54 579.3 405.53 582.22 398.69 584.98 391.85 587.9 385.15 590.55 378.62 592.87 372.06 595.19 365.65 597.09 359.38 598.54 353.09 599.85 346.92 600.64 340.89 600.88 334.82 600.9 328.86 600.35 323.02 599.21 317.13 597.82 311.34 595.84 305.66 593.31 299.92 590.52 294.27 587.19 288.74 583.37 283.13 579.32 277.63 574.82 272.25 569.91 266.8 564.81 261.48 559.36 256.3 553.59 251.06 547.7 245.99 541.54 241.09 535.16 236.17 528.69 231.46 522.05 226.97 515.27 222.51 508.44 218.31 501.51 214.41 494.5 210.57 487.47 207.07 480.39 203.93 473.29 200.91 466.18 198.28 459.07 196.09 451.96 194.06 444.87 192.49 437.79 191.41 430.75 190.52 423.71 190.14 416.72 190.29 409.78 190.64 402.85 191.51 396.13 192.87 389.64 194.39 383.14 196.38 376.86 198.79 370.79 201.33 364.71 204.25 358.85 207.53 353.19 210.87 347.51 214.54 342.02 218.48 336.74 222.44 331.42 226.65 326.28 231.08 321.33 235.48 316.31 240.07 311.46 244.82 306.78 249.51 302.01 254.36 297.39 259.33 292.91 264.21 288.32 269.22 283.86 274.34 279.51 279.37 275.04 284.51 270.66 289.76 266.39 294.92 261.98 300.19 257.65 305.57 253.42 310.88 249.05 316.31 244.78 321.87 240.6 327.36 236.3 332.99 232.12 338.77 228.07 344.49 223.93 350.38 219.95 356.42 216.17 362.43 212.34 368.61 208.74 374.97 205.41 381.3 202.11 387.83 199.12 394.53 196.5 401.23 193.97 408.12 191.87 415.21 190.22" stroke-dasharray="0 0" transform="rotate(32.32, 400, 400)" opacity="0.17"></path><path d="M418.36 200.94C425.09 199.51 431.84 198.58 438.56 198.15 445.29 197.91 452 198.18 458.67 198.94 465.34 199.9 471.96 201.35 478.5 203.27 485.02 205.38 491.44 207.94 497.74 210.92 503.98 214.06 510.07 217.6 515.97 221.49 521.78 225.52 527.36 229.88 532.66 234.52 537.85 239.27 542.72 244.28 547.23 249.52 551.58 254.82 555.53 260.33 559.05 266.01 562.37 271.72 565.22 277.59 567.58 283.59 569.73 289.59 571.38 295.71 572.51 301.93 573.45 308.14 573.89 314.44 573.84 320.81 573.66 327.16 573.04 333.59 572.01 340.06 570.95 346.52 569.56 353.04 567.89 359.59 566.34 366.14 564.61 372.72 562.75 379.33 561.16 385.94 559.55 392.57 557.98 399.21 556.81 405.86 555.77 412.51 554.87 419.15 554.47 425.79 554.25 432.26 554.22 438.54 554.64 444.81 555.2 450.89 555.84 456.75 557.35 465.4 560.55 481.45 561.92 488.79 563.64 501.95 562.34 518.36 560.23 522.59 553.32 529.44 537.94 536.76 531.23 538.35 523.99 539.9 507.9 542.56 499.19 543.84 493.26 544.95 487.14 546.06 480.87 547.2 474.57 548.66 468.14 550.2 461.62 551.81 455.08 553.79 448.45 555.85 441.76 557.98 435.07 560.46 428.32 563 421.54 565.54 414.75 568.37 408.08 571.07 401.54 573.61 395 576.3 388.58 578.73 382.29 580.87 375.98 583.02 369.79 584.79 363.73 586.16 357.64 587.43 351.66 588.23 345.79 588.55 336.99 588.5 319.82 585.48 311.46 582.52 305.86 580.15 300.35 577.3 294.95 573.98 289.5 570.46 284.15 566.52 278.92 562.18 273.64 557.67 268.48 552.82 263.46 547.65 258.42 542.36 253.53 536.8 248.82 531.01 244.11 525.13 239.6 519.07 235.31 512.84 231.06 506.57 227.07 500.16 223.37 493.67 219.74 487.15 216.42 480.56 213.46 473.92 210.62 467.27 208.15 460.6 206.09 453.91 204.19 447.23 202.73 440.55 201.72 433.89 200.9 427.24 200.56 420.6 200.71 414.01 201.05 407.42 201.88 401.03 203.17 394.83 204.62 388.63 206.51 382.62 208.8 376.8 211.2 370.98 213.99 365.33 217.1 359.88 220.3 354.41 223.8 349.1 227.57 343.98 231.37 338.82 235.41 333.82 239.67 328.98 243.91 324.08 248.35 319.33 252.95 314.73 257.5 310.05 262.21 305.49 267.04 301.06 271.81 296.53 276.71 292.12 281.71 287.8 286.64 283.38 291.67 279.05 296.81 274.82 301.87 270.47 307.04 266.2 312.32 262.03 317.52 257.74 322.84 253.54 328.27 249.46 333.64 245.26 339.14 241.19 344.76 237.26 350.34 233.26 356.06 229.42 361.91 225.78 367.73 222.1 373.71 218.65 379.83 215.47 385.93 212.31 392.2 209.46 398.62 206.96 405.03 204.55 411.61 202.53 418.35 200.94" stroke-dasharray="0 0" transform="rotate(36.36, 400, 400)" opacity="0.20"></path><path d="M420.68 211.66C427.05 210.28 433.41 209.37 439.72 208.91 446.03 208.63 452.3 208.81 458.51 209.46 470.89 211.29 482.95 214.92 494.43 220.15 505.74 226 516.28 233.29 525.77 241.75 534.83 250.61 542.58 260.45 548.76 271.02 554.29 281.76 558.09 293.1 560.04 304.83 561.43 316.6 561.14 328.71 559.31 340.99 557.5 353.27 554.72 365.73 551.31 378.22 549.95 384.48 548.57 390.74 547.2 396.99 546.19 403.25 545.27 409.5 544.45 415.71 543.95 424.95 544.21 442.47 544.86 450.71 546.72 461.5 548.4 471.37 549.57 480.19 551.17 488.87 551.64 496.43 550.77 502.77 549.61 508.98 546.8 514.01 542.36 517.86 537.39 521.75 530.81 524.68 522.83 526.75 514.42 529.29 504.81 531.36 494.24 533.13 483.46 535.88 471.93 538.7 459.87 541.67 453.82 543.63 447.66 545.64 441.41 547.7 435.16 550.06 428.82 552.44 422.42 554.82 416.02 557.44 409.7 559.92 403.49 562.25 397.27 564.72 391.14 566.94 385.11 568.9 373.03 572.86 361.3 575.34 349.98 576.17 338.55 576.48 327.43 574.88 316.72 571.45 305.84 567.29 295.31 561.35 285.24 553.89 275.06 545.85 265.38 536.5 256.38 526.16 247.44 515.49 239.32 504.06 232.27 492.15 225.53 480.12 220.06 467.75 216.09 455.26 214.32 449.01 212.96 442.75 212.04 436.48 211.28 430.22 210.97 423.96 211.13 417.72 211.46 411.49 212.25 405.42 213.47 399.52 214.84 393.62 216.62 387.88 218.78 382.32 223.43 371.15 229.45 360.62 236.56 350.72 243.83 340.68 252 331.18 260.86 322.21 269.61 312.97 278.94 304.13 288.71 295.72 298.24 286.93 308.21 278.47 318.54 270.4 328.64 261.93 339.18 253.86 350.12 246.35 360.91 238.61 372.2 231.57 383.96 225.5 389.82 222.5 395.81 219.79 401.93 217.41 408.04 215.12 414.29 213.19 420.67 211.67" stroke-dasharray="0 0" transform="rotate(40.400000000000006, 400, 400)" opacity="0.63"></path><path d="M422.08 222.39C434.07 219.87 445.87 219.1 457.33 220.01 468.76 221.56 479.76 224.77 490.13 229.47 500.32 234.73 509.71 241.34 518.05 249.07 526.02 257.18 532.73 266.25 537.99 276.04 542.73 286.03 545.91 296.61 547.47 307.59 548.63 318.63 548.34 330.02 546.72 341.57 545.21 353.14 542.86 364.87 539.94 376.61 537.91 388.35 535.87 400.11 534.04 411.7 533.68 423.29 533.68 434.14 533.94 444.15 535.37 454.12 536.6 463.19 537.39 471.26 538.63 479.24 538.91 486.19 538.05 492.05 535.83 500.21 523.62 511.64 513.73 515.43 506.36 518.18 497.82 520.53 488.32 522.61 478.64 525.56 468.16 528.53 457.07 531.57 445.94 535.68 434.3 539.92 422.3 544.1 410.31 549.11 398.53 553.47 387.06 556.97 375.57 560.61 364.35 562.91 353.46 563.77 342.49 564.22 331.8 562.99 321.47 560.12 311.02 556.65 300.91 551.57 291.26 545.07 281.55 538.06 272.33 529.81 263.8 520.58 255.36 511.04 247.73 500.72 241.12 489.85 234.84 478.86 229.75 467.47 226.08 455.88 222.96 444.27 221.39 432.52 221.54 420.77 222.34 409.03 224.81 397.83 228.74 387.23 233.11 376.58 238.77 366.46 245.48 356.89 252.37 347.2 260.13 337.96 268.58 329.18 276.97 320.17 285.94 311.52 295.35 303.26 304.58 294.68 314.23 286.41 324.22 278.54 334.03 270.35 344.24 262.56 354.78 255.34 365.21 247.95 376.05 241.26 387.28 235.5 398.45 229.87 410.08 225.41 422.07 222.39" stroke-dasharray="0 0" transform="rotate(44.44, 400, 400)" opacity="0.58"></path><path d="M422.49 233.11C433.69 230.69 444.62 229.87 455.12 230.6 465.59 231.88 475.56 234.69 484.85 238.87 493.99 243.55 502.3 249.5 509.58 256.5 516.56 263.86 522.36 272.14 526.83 281.12 530.9 290.31 533.6 300.09 534.87 310.27 535.87 320.54 535.63 331.14 534.26 341.91 533.05 352.72 531.11 363.67 528.65 374.61 526.99 385.56 525.26 396.49 523.62 407.24 523.25 417.99 523.09 428.02 523.11 437.23 524.13 446.42 524.96 454.76 525.39 462.17 526.31 472.74 523.42 489.11 518.92 495.03 515.23 498.83 510.24 501.93 504.05 504.42 497.59 507.35 490.03 509.94 481.53 512.27 472.87 515.37 463.4 518.44 453.27 521.51 443.1 525.49 432.36 529.49 421.19 533.37 410.02 537.97 398.96 541.93 388.13 545.08 377.28 548.39 366.62 550.51 356.23 551.35 345.79 551.9 335.59 550.96 325.72 548.56 315.78 545.69 306.16 541.37 296.99 535.74 287.8 529.68 279.12 522.45 271.1 514.27 263.2 505.81 256.08 496.56 249.95 486.72 244.13 476.77 239.44 466.36 236.07 455.68 233.21 444.98 231.79 434.05 231.96 423.05 232.72 412.05 235.02 401.49 238.68 391.41 242.76 381.3 248.04 371.62 254.33 362.41 260.8 353.09 268.13 344.15 276.11 335.61 284.1 326.88 292.65 318.46 301.63 310.41 310.5 302.09 319.78 294.07 329.36 286.45 338.82 278.59 348.63 271.13 358.72 264.24 368.73 257.23 379.08 250.9 389.72 245.47 400.34 240.18 411.29 235.98 422.49 233.11" stroke-dasharray="0 0" transform="rotate(48.48, 400, 400)" opacity="0.61"></path><path d="M421.9 243.84C432.29 241.52 442.33 240.67 451.89 241.22 461.41 242.26 470.38 244.69 478.65 248.37 486.79 252.5 494.11 257.79 500.45 264.07 506.54 270.68 511.55 278.17 515.36 286.33 518.88 294.69 521.19 303.63 522.27 312.97 523.19 322.42 523.05 332.19 521.93 342.14 521.02 352.13 519.47 362.26 517.43 372.38 516.1 382.51 514.66 392.61 513.2 402.52 512.82 412.43 512.55 421.65 512.34 430.12 513.01 438.57 513.47 446.23 513.57 453.06 514.03 462.85 511.05 478.27 506.99 484.07 503.75 487.85 499.36 491.05 493.9 493.72 488.24 496.8 481.55 499.58 473.97 502.11 466.25 505.3 457.73 508.42 448.54 511.48 439.3 515.3 429.46 519.07 419.14 522.65 408.81 526.84 398.51 530.41 388.36 533.23 378.2 536.21 368.16 538.14 358.34 538.94 348.51 539.53 338.86 538.82 329.52 536.82 320.16 534.45 311.1 530.79 302.47 525.93 293.87 520.73 285.76 514.44 278.29 507.24 270.97 499.8 264.4 491.57 258.75 482.74 253.42 473.8 249.13 464.36 246.07 454.59 243.47 444.79 242.19 434.71 242.37 424.48 243.09 414.24 245.22 404.33 248.61 394.82 252.38 385.27 257.27 376.06 263.11 367.24 269.14 358.33 275.99 349.73 283.48 341.49 291.01 333.08 299.09 324.95 307.58 317.16 316.02 309.17 324.85 301.46 333.97 294.15 343 286.66 352.35 279.57 361.93 273.04 371.46 266.45 381.26 260.51 391.28 255.42 401.27 250.48 411.51 246.54 421.9 243.84" stroke-dasharray="0 0" transform="rotate(52.52, 400, 400)" opacity="0.19"></path><path d="M420.34 254.56C429.89 252.36 439.04 251.49 447.68 251.89 456.27 252.7 464.3 254.77 471.62 257.97 478.83 261.57 485.25 266.23 490.76 271.8 496.08 277.67 500.42 284.36 503.69 291.69 506.76 299.22 508.78 307.31 509.74 315.78 510.63 324.37 510.61 333.29 509.76 342.38 509.13 351.52 507.93 360.8 506.29 370.07 505.26 379.36 504.07 388.62 502.79 397.7 502.4 406.78 502.03 415.24 501.65 423 502.01 430.75 502.14 437.8 501.95 444.1 501.97 453.18 498.78 467.8 495.05 473.5 490.21 478.9 475.48 488 465.77 492.12 458.92 495.36 451.28 498.48 442.99 501.48 434.65 505.12 425.7 508.64 416.23 511.93 406.76 515.72 397.25 518.92 387.82 521.42 378.39 524.08 369.04 525.81 359.86 526.54 350.68 527.14 341.67 526.6 332.93 524.92 324.21 522.98 315.77 519.88 307.75 515.71 299.78 511.28 292.29 505.84 285.42 499.53 278.7 493.04 272.69 485.78 267.55 477.91 262.7 469.94 258.82 461.45 256.07 452.58 253.73 443.68 252.59 434.45 252.79 424.99 253.46 415.54 255.42 406.31 258.52 397.38 261.98 388.42 266.47 379.73 271.84 371.35 277.41 362.89 283.76 354.69 290.71 346.8 297.72 338.77 305.28 331 313.23 323.54 321.17 315.92 329.49 308.59 338.07 301.64 346.61 294.57 355.42 287.89 364.43 281.77 373.41 275.61 382.61 270.08 391.95 265.35 401.28 260.76 410.78 257.1 420.34 254.56" stroke-dasharray="0 0" transform="rotate(56.56, 400, 400)" opacity="0.65"></path><path d="M417.87 265.28C426.58 263.21 434.84 262.34 442.59 262.59 450.29 263.2 457.42 264.93 463.88 267.69 470.24 270.77 475.86 274.83 480.64 279.71 485.28 284.86 489.06 290.77 491.9 297.28 494.61 303.97 496.41 311.19 497.32 318.8 498.22 326.51 498.34 334.54 497.74 342.76 497.38 351.03 496.51 359.44 495.22 367.85 494.45 376.29 493.49 384.71 492.37 392.97 491.99 401.24 491.54 408.94 491.02 416.03 491.11 423.12 490.97 429.59 490.52 435.41 490.15 443.85 486.69 457.74 483.19 463.35 478.82 468.74 465.73 478.06 457.1 482.31 451.02 485.53 444.22 488.61 436.77 491.52 429.28 494.95 421.2 498.21 412.6 501.2 403.99 504.62 395.3 507.46 386.63 509.65 377.98 512 369.36 513.52 360.88 514.17 352.42 514.74 344.1 514.31 336.03 512.91 328 511.3 320.24 508.69 312.88 505.12 305.59 501.35 298.76 496.67 292.5 491.19 286.41 485.56 280.98 479.2 276.36 472.24 272 465.2 268.53 457.63 266.08 449.64 263.99 441.63 263 433.24 263.21 424.58 263.82 415.92 265.61 407.39 268.43 399.08 271.56 390.76 275.65 382.62 280.54 374.73 285.63 366.78 291.43 359.04 297.81 351.55 304.28 343.97 311.26 336.62 318.62 329.55 326 322.38 333.74 315.47 341.72 308.95 349.69 302.33 357.91 296.11 366.28 290.42 374.65 284.72 383.19 279.61 391.81 275.25 400.44 271.02 409.16 267.65 417.87 265.28" stroke-dasharray="0 0" transform="rotate(60.599999999999994, 400, 400)" opacity="0.36"></path><path d="M414.6 276.01C422.46 274.07 429.86 273.2 436.75 273.33 443.61 273.76 449.91 275.18 455.56 277.52 461.15 280.13 466.06 283.6 470.22 287.83 474.29 292.29 477.59 297.43 480.09 303.14 482.51 309 484.17 315.37 485.06 322.1 485.98 328.93 486.25 336.08 485.9 343.41 485.77 350.79 485.19 358.33 484.22 365.89 483.68 373.46 482.92 381.04 481.95 388.51 481.59 395.97 481.08 402.95 480.45 409.4 480.15 418.82 478.57 434.99 476.89 441.78 474.85 448.18 467.51 458.99 462.05 463.62 458.13 466.87 453.48 469.88 448.14 472.65 442.76 475.81 436.71 478.8 430.06 481.58 423.39 484.78 416.15 487.78 408.4 490.48 400.65 493.52 392.79 496.02 384.93 497.93 377.08 499.98 369.24 501.29 361.52 501.84 353.82 502.35 346.24 502.01 338.9 500.81 331.61 499.48 324.57 497.27 317.91 494.23 311.34 491.03 305.19 487.03 299.58 482.3 294.14 477.44 289.29 471.91 285.19 465.81 281.32 459.63 278.25 452.94 276.1 445.81 274.27 438.66 273.41 431.11 273.62 423.25 274.19 415.39 275.79 407.6 278.33 399.95 281.14 392.28 284.81 384.74 289.21 377.39 293.8 370.01 299.05 362.78 304.83 355.77 310.71 348.71 317.07 341.83 323.8 335.23 330.56 328.55 337.65 322.13 344.98 316.07 352.31 309.96 359.87 304.23 367.56 299 375.25 293.78 383.08 289.11 390.94 285.13 398.82 281.28 406.74 278.19 414.6 276.01" stroke-dasharray="0 0" transform="rotate(64.64, 400, 400)" opacity="0.20"></path><path d="M410.68 286.73C417.69 284.94 424.26 284.09 430.33 284.12 439.14 284.96 453.87 291.11 459.64 296.18 464.67 302.18 471.31 317.13 472.99 325.77 473.95 331.73 474.36 337.99 474.24 344.45 474.32 350.95 473.99 357.61 473.29 364.31 472.95 371.04 472.36 377.79 471.54 384.46 471.19 391.14 470.65 397.41 469.95 403.25 469.39 411.78 467.26 426.67 465.41 433.06 463.3 439.14 456.38 449.67 451.44 454.26 445.86 458.94 431.63 467.62 423.06 471.67 417.16 474.62 410.73 477.34 403.83 479.75 396.93 482.44 389.91 484.62 382.88 486.25 375.86 488.01 368.83 489.12 361.9 489.56 355 490 348.22 489.7 341.65 488.67 335.13 487.56 328.86 485.69 322.93 483.09 317.09 480.39 311.65 476.97 306.7 472.91 301.89 468.76 297.64 463.98 294.05 458.67 290.67 453.31 288 447.44 286.14 441.14 284.55 434.83 283.82 428.11 284.04 421.07 284.55 414.01 285.98 406.97 288.23 400.01 290.71 393.04 293.97 386.15 297.87 379.4 301.95 372.63 306.63 365.98 311.79 359.51 317.06 353.01 322.77 346.68 328.81 340.6 334.91 334.47 341.32 328.59 347.94 323.04 354.58 317.48 361.42 312.27 368.37 307.52 375.33 302.8 382.4 298.59 389.48 295 396.57 291.52 403.67 288.72 410.68 286.73" stroke-dasharray="0 0" transform="rotate(68.68, 400, 400)" opacity="0.96"></path><path d="M406.28 297.45C418.61 294.38 429.28 294.56 437.89 297.56 446.38 301.26 452.75 307.59 456.77 315.83 460.79 324.53 462.76 334.83 462.77 345.98 463.45 357.28 462.87 369.19 461.12 380.99 460.84 392.8 459.6 403.33 457.47 412.35 456.26 421.47 453.48 429.3 449.02 435.77 444.77 442.73 438.4 448.79 430.05 453.81 421.64 459.78 411.22 465.02 399.09 469.03 386.97 473.9 374.41 476.71 362.18 477.35 350.07 478.06 338.42 476.15 327.99 471.78 317.9 467.15 309.3 460.06 302.96 450.94 297.33 441.67 294.27 430.57 294.46 418.09 295.6 405.61 299.87 392.99 306.54 380.8 313.79 368.57 323.11 356.68 333.73 345.7 344.57 334.64 356.51 324.5 368.83 315.99 381.23 307.64 393.95 301.19 406.28 297.45" stroke-dasharray="0 0" transform="rotate(72.72, 400, 400)" opacity="0.61"></path><path d="M401.61 308.18C412.28 305.39 421.47 305.39 428.89 307.78 436.24 310.71 441.81 315.88 445.43 322.75 449.13 329.96 451.13 338.62 451.48 348.11 452.38 357.71 452.12 367.95 450.7 378.23 450.38 388.51 449.06 397.85 446.86 405.99 445.38 414.22 442.55 421.47 438.34 427.59 434.35 434.1 428.63 439.84 421.29 444.61 413.93 450.08 404.88 454.79 394.39 458.31 383.9 462.47 373.05 464.78 362.5 465.22 352.07 465.76 342.06 464.1 333.16 460.36 324.55 456.48 317.26 450.5 311.94 442.73 307.19 434.85 304.65 425.31 304.87 414.45 305.85 403.59 309.5 392.48 315.22 381.68 321.42 370.87 329.44 360.32 338.61 350.58 348 340.81 358.38 331.89 369.09 324.42 379.88 317.12 390.93 311.48 401.61 308.18" stroke-dasharray="0 0" transform="rotate(76.76, 400, 400)" opacity="0.40"></path><path d="M396.86 318.9C405.9 316.43 413.7 316.28 420.02 318.13 426.31 320.37 431.15 324.5 434.42 330.08 437.79 335.91 439.78 343.01 440.38 350.9 441.43 358.87 441.41 367.48 440.29 376.28 439.95 385.06 438.62 393.19 436.45 400.41 434.82 407.71 432.03 414.27 428.13 419.92 424.41 425.86 419.32 431.14 412.94 435.53 406.57 440.42 398.83 444.57 389.94 447.58 381.04 451.07 371.89 452.92 363.03 453.18 354.26 453.54 345.9 452.09 338.5 448.92 331.35 445.68 325.34 440.69 321 434.16 317.1 427.57 315.04 419.52 315.29 410.27 316.11 401.01 319.16 391.47 323.94 382.15 329.1 372.83 335.82 363.71 343.54 355.28 351.44 346.88 360.21 339.22 369.29 332.82 378.44 326.58 387.81 321.76 396.86 318.9" stroke-dasharray="0 0" transform="rotate(80.80000000000001, 400, 400)" opacity="0.20"></path><path d="M392.25 329.62C402.93 327.38 418.8 331.86 423.78 337.84 426.79 342.4 428.71 348.05 429.48 354.42 430.57 360.85 430.73 367.89 429.87 375.2 429.54 382.51 428.28 389.4 426.23 395.63 424.57 401.93 421.93 407.69 418.4 412.74 415.02 417.99 410.57 422.68 405.14 426.58 399.74 430.81 393.28 434.35 385.94 436.86 378.6 439.69 371.11 441.12 363.91 441.23 356.78 441.43 350.03 440.16 344.1 437.51 338.36 434.83 333.57 430.73 330.16 425.38 327.06 419.99 325.45 413.37 325.71 405.71 326.37 398.05 328.83 390.11 332.7 382.31 336.86 374.54 342.3 366.92 348.57 359.88 355 352.88 362.16 346.51 369.6 341.21 377.09 336.03 384.8 332.02 392.25 329.62" stroke-dasharray="0 0" transform="rotate(84.84, 400, 400)" opacity="0.34"></path><path d="M387.99 340.35C399.79 337.04 408.63 339.53 413.59 346.04 418.86 352.98 421.05 363.35 419.45 375.05 419.19 386.74 415.45 397.57 409.2 406.04 403.41 415.02 394.21 422.36 382.56 426.14 370.91 430.73 359.18 430.54 350.01 426.21 341.33 421.88 335.91 413.1 336.12 400.93 337.41 388.76 344.16 375.66 353.78 364.41 363.85 353.33 376.18 344.37 387.99 340.35" stroke-dasharray="0 0" transform="rotate(88.88, 400, 400)" opacity="0.34"></path><path d="M384.26 351.07C393.03 348.47 399.82 350.09 403.86 354.7 408.12 359.54 410.09 367.03 409.04 375.82 408.72 384.6 405.58 393.02 400.55 399.78 395.79 406.81 388.64 412.54 379.96 415.41 371.29 418.74 362.78 418.43 356.28 415.07 350.07 411.75 346.27 405.18 346.54 396.13 347.43 387.06 352.28 377.31 359.25 368.96 366.49 360.73 375.49 354.08 384.26 351.07" stroke-dasharray="0 0" transform="rotate(92.92, 400, 400)" opacity="0.99"></path><path d="M381.23 361.8C392.84 358.37 400.14 365.74 398.62 377.49 398.37 389.23 389.78 401.03 378.26 404.69 366.73 409.14 356.73 403.45 356.96 391.46 358.32 379.46 369.62 365.96 381.23 361.8" stroke-dasharray="0 0" transform="rotate(96.96, 400, 400)" opacity="0.44"></path></g></svg>