<svg xmlns="http://www.w3.org/2000/svg" version="1.1" xmlns:xlink="http://www.w3.org/1999/xlink" viewBox="0 0 700 700" style="overflow: hidden; display: block;" width="700" height="700"><defs></defs><g id="two-0" transform="matrix(1 0 0 1 0 0)" opacity="1"><path transform="matrix(1 0 0 1 350 350)" id="two-160" d="M 283.268569 47.269163 C 264.135022 96.017828 166.288822 11.043901 124.637538 42.78812 C 118.753079 47.272918 117.268807 57.4525 119.305993 64.565174 C 137.55421 128.277392 304.401478 152.948287 263.09249 204.773104 C 218.105132 261.212677 148.508037 65.596923 79.327702 86.172856 C 72.072606 88.3307 70.441102 99.565682 69.985752 107.121168 C 66.318952 167.963175 179.46317 257.466195 124.409587 283.625292 C 78.852677 305.271977 77.154778 190.149402 39.620306 156.457051 C 31.906212 149.532591 21.391488 138.10647 11.761789 141.943694 C -17.34876 153.543609 12.069419 233.759209 -19.200334 231.713565 C -48.202935 229.816237 -8.16783 150.267122 -36.825497 145.420595 C -102.214615 134.362121 -74.256587 306.53914 -139.550936 318.144086 C -158.229931 321.463956 -178.307449 299.929753 -184.164517 281.884777 C -196.311702 244.460658 -127.096789 195.906249 -153.440345 166.680646 C -170.488377 147.767518 -205.995309 188.165775 -229.650711 178.744322 C -244.52494 172.820226 -259.420644 156.300118 -259.234425 140.290655 C -258.884462 110.203832 -223.873394 89.967972 -201.971407 69.336871 C -182.717629 51.200313 -131.299882 48.704748 -136.702468 22.811607 C -144.152255 -12.893219 -239.18039 36.030506 -244.849294 0 C -248.115055 -20.756571 -191.734014 -10.734934 -189.593062 -31.637487 C -186.818221 -58.728836 -260.254021 -60.55214 -251.409797 -86.309093 C -242.563752 -112.071345 -195.808488 -86.488121 -169.030101 -91.474517 C -156.562585 -93.796089 -144.436598 -99.101061 -132.380701 -103.036035 C -122.899905 -106.130512 -108.166253 -103.757872 -103.745359 -112.697502 C -88.944547 -142.626699 -164.320667 -190.467346 -136.232116 -208.518777 C -107.15417 -227.206053 -92.54143 -125.148442 -59.97061 -136.719219 C -39.414025 -144.021941 -67.578675 -187.816666 -51.215008 -202.243493 C -42.690671 -209.758872 -28.064959 -201.160773 -16.778905 -202.491261 C -5.269328 -203.8481 8.060066 -203.598974 17.435236 -210.412016 C 49.510875 -233.721747 40.474573 -321.140245 79.3587 -313.380422 C 111.731541 -306.920008 67.980407 -234.672445 94.058838 -214.432553 C 107.001374 -204.387642 133.913363 -232.880143 143.44029 -219.551709 C 170.498745 -181.696185 49.996446 -123.014176 84.283213 -91.555977 C 119.36348 -59.369741 163.492176 -151.087568 209.558786 -163.106151 C 238.429479 -170.638392 287.742923 -189.552457 299.970913 -162.336141 C 315.188897 -128.464877 254.886894 -100.862057 225.964532 -77.573722 C 195.433729 -52.990269 115.719606 -59.048985 121.881948 -20.338501 C 127.556416 15.307265 196.904494 -15.810857 229.351944 -0.000001 C 250.623143 10.36494 291.913744 25.242888 283.268569 47.269163 Z " fill="hsl(167, 10%, 91%)" stroke="undefined" stroke-width="1" stroke-opacity="1" fill-opacity="1" visibility="visible" stroke-linecap="butt" stroke-linejoin="miter" stroke-miterlimit="4"></path></g></svg>