<svg xmlns="http://www.w3.org/2000/svg" version="1.1" xmlns:xlink="http://www.w3.org/1999/xlink" xmlns:svgjs="http://svgjs.dev/svgjs" width="1440" height="560" preserveAspectRatio="none" viewBox="0 0 1440 560"><g mask="url(&quot;#SvgjsMask1014&quot;)" fill="none"><rect width="1440" height="560" x="0" y="0" fill="rgba(240, 242, 255, 1)"></rect><path d="M-98.23 410.05L-98.23 410.05" stroke="rgba(19, 46, 101, 0.31)" stroke-width="1.5"></path><path d="M-98.23 410.05L-69.47 490.74" stroke="rgba(19, 46, 101, 0.31)" stroke-width="1.5"></path><path d="M-98.23 410.05L88.19 512.23" stroke="rgba(19, 46, 101, 0.31)" stroke-width="1.5"></path><path d="M-98.23 410.05L-61.42 650.13" stroke="rgba(19, 46, 101, 0.31)" stroke-width="1.5"></path><path d="M-98.23 410.05L72.6 643.33" stroke="rgba(19, 46, 101, 0.31)" stroke-width="1.5"></path><path d="M-98.23 410.05L220.36 367.18" stroke="rgba(19, 46, 101, 0.31)" stroke-width="1.5"></path><path d="M-98.23 410.05L251.15 527.02" stroke="rgba(19, 46, 101, 0.31)" stroke-width="1.5"></path><path d="M-69.47 490.74L-69.47 490.74" stroke="rgba(19, 46, 101, 0.31)" stroke-width="1.5"></path><path d="M-69.47 490.74L88.19 512.23" stroke="rgba(19, 46, 101, 0.31)" stroke-width="1.5"></path><path d="M-69.47 490.74L-61.42 650.13" stroke="rgba(19, 46, 101, 0.31)" stroke-width="1.5"></path><path d="M-69.47 490.74L72.6 643.33" stroke="rgba(19, 46, 101, 0.31)" stroke-width="1.5"></path><path d="M-69.47 490.74L220.36 367.18" stroke="rgba(19, 46, 101, 0.31)" stroke-width="1.5"></path><path d="M-61.42 650.13L-61.42 650.13" stroke="rgba(19, 46, 101, 0.31)" stroke-width="1.5"></path><path d="M-61.42 650.13L72.6 643.33" stroke="rgba(19, 46, 101, 0.31)" stroke-width="1.5"></path><path d="M-61.42 650.13L88.19 512.23" stroke="rgba(19, 46, 101, 0.31)" stroke-width="1.5"></path><path d="M-61.42 650.13L249.78 681.66" stroke="rgba(19, 46, 101, 0.31)" stroke-width="1.5"></path><path d="M-61.42 650.13L251.15 527.02" stroke="rgba(19, 46, 101, 0.31)" stroke-width="1.5"></path><path d="M88.19 512.23L88.19 512.23" stroke="rgba(19, 46, 101, 0.31)" stroke-width="1.5"></path><path d="M88.19 512.23L72.6 643.33" stroke="rgba(19, 46, 101, 0.31)" stroke-width="1.5"></path><path d="M72.6 643.33L72.6 643.33" stroke="rgba(19, 46, 101, 0.31)" stroke-width="1.5"></path><path d="M72.6 643.33L249.78 681.66" stroke="rgba(19, 46, 101, 0.31)" stroke-width="1.5"></path><path d="M72.6 643.33L251.15 527.02" stroke="rgba(19, 46, 101, 0.31)" stroke-width="1.5"></path><path d="M220.36 367.18L220.36 367.18" stroke="rgba(19, 46, 101, 0.31)" stroke-width="1.5"></path><path d="M220.36 367.18L251.15 527.02" stroke="rgba(19, 46, 101, 0.31)" stroke-width="1.5"></path><path d="M220.36 367.18L397.31 359.81" stroke="rgba(19, 46, 101, 0.31)" stroke-width="1.5"></path><path d="M220.36 367.18L88.19 512.23" stroke="rgba(19, 46, 101, 0.31)" stroke-width="1.5"></path><path d="M251.15 527.02L251.15 527.02" stroke="rgba(19, 46, 101, 0.31)" stroke-width="1.5"></path><path d="M251.15 527.02L394.81 551" stroke="rgba(19, 46, 101, 0.31)" stroke-width="1.5"></path><path d="M251.15 527.02L249.78 681.66" stroke="rgba(19, 46, 101, 0.31)" stroke-width="1.5"></path><path d="M249.78 681.66L249.78 681.66" stroke="rgba(19, 46, 101, 0.31)" stroke-width="1.5"></path><path d="M249.78 681.66L381.67 676.82" stroke="rgba(19, 46, 101, 0.31)" stroke-width="1.5"></path><path d="M397.31 359.81L397.31 359.81" stroke="rgba(19, 46, 101, 0.31)" stroke-width="1.5"></path><path d="M397.31 359.81L549.24 384.38" stroke="rgba(19, 46, 101, 0.31)" stroke-width="1.5"></path><path d="M397.31 359.81L394.81 551" stroke="rgba(19, 46, 101, 0.31)" stroke-width="1.5"></path><path d="M394.81 551L394.81 551" stroke="rgba(19, 46, 101, 0.31)" stroke-width="1.5"></path><path d="M394.81 551L381.67 676.82" stroke="rgba(19, 46, 101, 0.31)" stroke-width="1.5"></path><path d="M394.81 551L521.19 536.82" stroke="rgba(19, 46, 101, 0.31)" stroke-width="1.5"></path><path d="M381.67 676.82L381.67 676.82" stroke="rgba(19, 46, 101, 0.31)" stroke-width="1.5"></path><path d="M381.67 676.82L554.62 707.54" stroke="rgba(19, 46, 101, 0.31)" stroke-width="1.5"></path><path d="M381.67 676.82L521.19 536.82" stroke="rgba(19, 46, 101, 0.31)" stroke-width="1.5"></path><path d="M549.24 384.38L549.24 384.38" stroke="rgba(19, 46, 101, 0.31)" stroke-width="1.5"></path><path d="M549.24 384.38L677.61 363.37" stroke="rgba(19, 46, 101, 0.31)" stroke-width="1.5"></path><path d="M549.24 384.38L521.19 536.82" stroke="rgba(19, 46, 101, 0.31)" stroke-width="1.5"></path><path d="M521.19 536.82L521.19 536.82" stroke="rgba(19, 46, 101, 0.31)" stroke-width="1.5"></path><path d="M521.19 536.82L554.62 707.54" stroke="rgba(19, 46, 101, 0.31)" stroke-width="1.5"></path><path d="M521.19 536.82L645.5 659.64" stroke="rgba(19, 46, 101, 0.31)" stroke-width="1.5"></path><path d="M554.62 707.54L554.62 707.54" stroke="rgba(19, 46, 101, 0.31)" stroke-width="1.5"></path><path d="M554.62 707.54L645.5 659.64" stroke="rgba(19, 46, 101, 0.31)" stroke-width="1.5"></path><path d="M645.84 256.43L645.84 256.43" stroke="rgba(19, 46, 101, 0.31)" stroke-width="1.5"></path><path d="M645.84 256.43L677.61 363.37" stroke="rgba(19, 46, 101, 0.31)" stroke-width="1.5"></path><path d="M645.84 256.43L549.24 384.38" stroke="rgba(19, 46, 101, 0.31)" stroke-width="1.5"></path><path d="M645.84 256.43L848.27 245.63" stroke="rgba(19, 46, 101, 0.31)" stroke-width="1.5"></path><path d="M645.84 256.43L397.31 359.81" stroke="rgba(19, 46, 101, 0.31)" stroke-width="1.5"></path><path d="M645.84 256.43L696.44 526.48" stroke="rgba(19, 46, 101, 0.31)" stroke-width="1.5"></path><path d="M645.84 256.43L521.19 536.82" stroke="rgba(19, 46, 101, 0.31)" stroke-width="1.5"></path><path d="M677.61 363.37L677.61 363.37" stroke="rgba(19, 46, 101, 0.31)" stroke-width="1.5"></path><path d="M677.61 363.37L696.44 526.48" stroke="rgba(19, 46, 101, 0.31)" stroke-width="1.5"></path><path d="M696.44 526.48L696.44 526.48" stroke="rgba(19, 46, 101, 0.31)" stroke-width="1.5"></path><path d="M696.44 526.48L797.78 561.1" stroke="rgba(19, 46, 101, 0.31)" stroke-width="1.5"></path><path d="M696.44 526.48L645.5 659.64" stroke="rgba(19, 46, 101, 0.31)" stroke-width="1.5"></path><path d="M696.44 526.48L521.19 536.82" stroke="rgba(19, 46, 101, 0.31)" stroke-width="1.5"></path><path d="M645.5 659.64L645.5 659.64" stroke="rgba(19, 46, 101, 0.31)" stroke-width="1.5"></path><path d="M848.27 245.63L848.27 245.63" stroke="rgba(19, 46, 101, 0.31)" stroke-width="1.5"></path><path d="M848.27 245.63L966.16 215.52" stroke="rgba(19, 46, 101, 0.31)" stroke-width="1.5"></path><path d="M848.27 245.63L980 391.4" stroke="rgba(19, 46, 101, 0.31)" stroke-width="1.5"></path><path d="M797.78 561.1L797.78 561.1" stroke="rgba(19, 46, 101, 0.31)" stroke-width="1.5"></path><path d="M797.78 561.1L855.59 693.99" stroke="rgba(19, 46, 101, 0.31)" stroke-width="1.5"></path><path d="M797.78 561.1L645.5 659.64" stroke="rgba(19, 46, 101, 0.31)" stroke-width="1.5"></path><path d="M797.78 561.1L960.32 665.91" stroke="rgba(19, 46, 101, 0.31)" stroke-width="1.5"></path><path d="M855.59 693.99L855.59 693.99" stroke="rgba(19, 46, 101, 0.31)" stroke-width="1.5"></path><path d="M855.59 693.99L960.32 665.91" stroke="rgba(19, 46, 101, 0.31)" stroke-width="1.5"></path><path d="M855.59 693.99L997.42 547.12" stroke="rgba(19, 46, 101, 0.31)" stroke-width="1.5"></path><path d="M855.59 693.99L645.5 659.64" stroke="rgba(19, 46, 101, 0.31)" stroke-width="1.5"></path><path d="M974.52 -39.05L974.52 -39.05" stroke="rgba(19, 46, 101, 0.31)" stroke-width="1.5"></path><path d="M974.52 -39.05L1006.55 106.02" stroke="rgba(19, 46, 101, 0.31)" stroke-width="1.5"></path><path d="M974.52 -39.05L1150.79 -47.34" stroke="rgba(19, 46, 101, 0.31)" stroke-width="1.5"></path><path d="M974.52 -39.05L1136.11 72.47" stroke="rgba(19, 46, 101, 0.31)" stroke-width="1.5"></path><path d="M974.52 -39.05L966.16 215.52" stroke="rgba(19, 46, 101, 0.31)" stroke-width="1.5"></path><path d="M974.52 -39.05L1247.43 -87.85" stroke="rgba(19, 46, 101, 0.31)" stroke-width="1.5"></path><path d="M974.52 -39.05L848.27 245.63" stroke="rgba(19, 46, 101, 0.31)" stroke-width="1.5"></path><path d="M1006.55 106.02L1006.55 106.02" stroke="rgba(19, 46, 101, 0.31)" stroke-width="1.5"></path><path d="M1006.55 106.02L966.16 215.52" stroke="rgba(19, 46, 101, 0.31)" stroke-width="1.5"></path><path d="M1006.55 106.02L1136.11 72.47" stroke="rgba(19, 46, 101, 0.31)" stroke-width="1.5"></path><path d="M1006.55 106.02L1099.77 256.93" stroke="rgba(19, 46, 101, 0.31)" stroke-width="1.5"></path><path d="M1006.55 106.02L1150.79 -47.34" stroke="rgba(19, 46, 101, 0.31)" stroke-width="1.5"></path><path d="M1006.55 106.02L848.27 245.63" stroke="rgba(19, 46, 101, 0.31)" stroke-width="1.5"></path><path d="M966.16 215.52L966.16 215.52" stroke="rgba(19, 46, 101, 0.31)" stroke-width="1.5"></path><path d="M966.16 215.52L1099.77 256.93" stroke="rgba(19, 46, 101, 0.31)" stroke-width="1.5"></path><path d="M966.16 215.52L980 391.4" stroke="rgba(19, 46, 101, 0.31)" stroke-width="1.5"></path><path d="M966.16 215.52L1136.11 72.47" stroke="rgba(19, 46, 101, 0.31)" stroke-width="1.5"></path><path d="M980 391.4L980 391.4" stroke="rgba(19, 46, 101, 0.31)" stroke-width="1.5"></path><path d="M980 391.4L997.42 547.12" stroke="rgba(19, 46, 101, 0.31)" stroke-width="1.5"></path><path d="M980 391.4L1156.75 380.66" stroke="rgba(19, 46, 101, 0.31)" stroke-width="1.5"></path><path d="M980 391.4L1099.77 256.93" stroke="rgba(19, 46, 101, 0.31)" stroke-width="1.5"></path><path d="M997.42 547.12L997.42 547.12" stroke="rgba(19, 46, 101, 0.31)" stroke-width="1.5"></path><path d="M997.42 547.12L960.32 665.91" stroke="rgba(19, 46, 101, 0.31)" stroke-width="1.5"></path><path d="M997.42 547.12L1135.8 673.82" stroke="rgba(19, 46, 101, 0.31)" stroke-width="1.5"></path><path d="M997.42 547.12L797.78 561.1" stroke="rgba(19, 46, 101, 0.31)" stroke-width="1.5"></path><path d="M997.42 547.12L1156.75 380.66" stroke="rgba(19, 46, 101, 0.31)" stroke-width="1.5"></path><path d="M960.32 665.91L960.32 665.91" stroke="rgba(19, 46, 101, 0.31)" stroke-width="1.5"></path><path d="M960.32 665.91L1135.8 673.82" stroke="rgba(19, 46, 101, 0.31)" stroke-width="1.5"></path><path d="M960.32 665.91L980 391.4" stroke="rgba(19, 46, 101, 0.31)" stroke-width="1.5"></path><path d="M960.32 665.91L696.44 526.48" stroke="rgba(19, 46, 101, 0.31)" stroke-width="1.5"></path><path d="M1150.79 -47.34L1150.79 -47.34" stroke="rgba(19, 46, 101, 0.31)" stroke-width="1.5"></path><path d="M1150.79 -47.34L1247.43 -87.85" stroke="rgba(19, 46, 101, 0.31)" stroke-width="1.5"></path><path d="M1150.79 -47.34L1136.11 72.47" stroke="rgba(19, 46, 101, 0.31)" stroke-width="1.5"></path><path d="M1150.79 -47.34L1274.07 199.86" stroke="rgba(19, 46, 101, 0.31)" stroke-width="1.5"></path><path d="M1150.79 -47.34L1420.84 98.62" stroke="rgba(19, 46, 101, 0.31)" stroke-width="1.5"></path><path d="M1136.11 72.47L1136.11 72.47" stroke="rgba(19, 46, 101, 0.31)" stroke-width="1.5"></path><path d="M1099.77 256.93L1099.77 256.93" stroke="rgba(19, 46, 101, 0.31)" stroke-width="1.5"></path><path d="M1099.77 256.93L1156.75 380.66" stroke="rgba(19, 46, 101, 0.31)" stroke-width="1.5"></path><path d="M1156.75 380.66L1156.75 380.66" stroke="rgba(19, 46, 101, 0.31)" stroke-width="1.5"></path><path d="M1156.75 380.66L1297.39 382.44" stroke="rgba(19, 46, 101, 0.31)" stroke-width="1.5"></path><path d="M1156.75 380.66L1257.14 562.06" stroke="rgba(19, 46, 101, 0.31)" stroke-width="1.5"></path><path d="M1156.75 380.66L1274.07 199.86" stroke="rgba(19, 46, 101, 0.31)" stroke-width="1.5"></path><path d="M1135.8 673.82L1135.8 673.82" stroke="rgba(19, 46, 101, 0.31)" stroke-width="1.5"></path><path d="M1135.8 673.82L1264.55 683.69" stroke="rgba(19, 46, 101, 0.31)" stroke-width="1.5"></path><path d="M1135.8 673.82L1257.14 562.06" stroke="rgba(19, 46, 101, 0.31)" stroke-width="1.5"></path><path d="M1247.43 -87.85L1247.43 -87.85" stroke="rgba(19, 46, 101, 0.31)" stroke-width="1.5"></path><path d="M1247.43 -87.85L1136.11 72.47" stroke="rgba(19, 46, 101, 0.31)" stroke-width="1.5"></path><path d="M1247.43 -87.85L1420.84 98.62" stroke="rgba(19, 46, 101, 0.31)" stroke-width="1.5"></path><path d="M1247.43 -87.85L1274.07 199.86" stroke="rgba(19, 46, 101, 0.31)" stroke-width="1.5"></path><path d="M1274.07 199.86L1274.07 199.86" stroke="rgba(19, 46, 101, 0.31)" stroke-width="1.5"></path><path d="M1274.07 199.86L1436.89 242.89" stroke="rgba(19, 46, 101, 0.31)" stroke-width="1.5"></path><path d="M1274.07 199.86L1420.84 98.62" stroke="rgba(19, 46, 101, 0.31)" stroke-width="1.5"></path><path d="M1297.39 382.44L1297.39 382.44" stroke="rgba(19, 46, 101, 0.31)" stroke-width="1.5"></path><path d="M1297.39 382.44L1447.18 380.95" stroke="rgba(19, 46, 101, 0.31)" stroke-width="1.5"></path><path d="M1297.39 382.44L1439.85 487.68" stroke="rgba(19, 46, 101, 0.31)" stroke-width="1.5"></path><path d="M1297.39 382.44L1274.07 199.86" stroke="rgba(19, 46, 101, 0.31)" stroke-width="1.5"></path><path d="M1257.14 562.06L1257.14 562.06" stroke="rgba(19, 46, 101, 0.31)" stroke-width="1.5"></path><path d="M1257.14 562.06L1264.55 683.69" stroke="rgba(19, 46, 101, 0.31)" stroke-width="1.5"></path><path d="M1257.14 562.06L1297.39 382.44" stroke="rgba(19, 46, 101, 0.31)" stroke-width="1.5"></path><path d="M1264.55 683.69L1264.55 683.69" stroke="rgba(19, 46, 101, 0.31)" stroke-width="1.5"></path><path d="M1264.55 683.69L1455.64 695.9" stroke="rgba(19, 46, 101, 0.31)" stroke-width="1.5"></path><path d="M1264.55 683.69L1439.85 487.68" stroke="rgba(19, 46, 101, 0.31)" stroke-width="1.5"></path><path d="M1264.55 683.69L1544.47 676.61" stroke="rgba(19, 46, 101, 0.31)" stroke-width="1.5"></path><path d="M1420.84 98.62L1420.84 98.62" stroke="rgba(19, 46, 101, 0.31)" stroke-width="1.5"></path><path d="M1420.84 98.62L1436.89 242.89" stroke="rgba(19, 46, 101, 0.31)" stroke-width="1.5"></path><path d="M1420.84 98.62L1566.39 98.45" stroke="rgba(19, 46, 101, 0.31)" stroke-width="1.5"></path><path d="M1436.89 242.89L1436.89 242.89" stroke="rgba(19, 46, 101, 0.31)" stroke-width="1.5"></path><path d="M1436.89 242.89L1564.33 200.61" stroke="rgba(19, 46, 101, 0.31)" stroke-width="1.5"></path><path d="M1436.89 242.89L1447.18 380.95" stroke="rgba(19, 46, 101, 0.31)" stroke-width="1.5"></path><path d="M1436.89 242.89L1566.39 98.45" stroke="rgba(19, 46, 101, 0.31)" stroke-width="1.5"></path><path d="M1436.89 242.89L1557.34 395.21" stroke="rgba(19, 46, 101, 0.31)" stroke-width="1.5"></path><path d="M1447.18 380.95L1447.18 380.95" stroke="rgba(19, 46, 101, 0.31)" stroke-width="1.5"></path><path d="M1447.18 380.95L1439.85 487.68" stroke="rgba(19, 46, 101, 0.31)" stroke-width="1.5"></path><path d="M1447.18 380.95L1557.34 395.21" stroke="rgba(19, 46, 101, 0.31)" stroke-width="1.5"></path><path d="M1447.18 380.95L1554.93 494.68" stroke="rgba(19, 46, 101, 0.31)" stroke-width="1.5"></path><path d="M1439.85 487.68L1439.85 487.68" stroke="rgba(19, 46, 101, 0.31)" stroke-width="1.5"></path><path d="M1439.85 487.68L1554.93 494.68" stroke="rgba(19, 46, 101, 0.31)" stroke-width="1.5"></path><path d="M1439.85 487.68L1557.34 395.21" stroke="rgba(19, 46, 101, 0.31)" stroke-width="1.5"></path><path d="M1455.64 695.9L1455.64 695.9" stroke="rgba(19, 46, 101, 0.31)" stroke-width="1.5"></path><path d="M1455.64 695.9L1544.47 676.61" stroke="rgba(19, 46, 101, 0.31)" stroke-width="1.5"></path><path d="M1566.39 98.45L1566.39 98.45" stroke="rgba(19, 46, 101, 0.31)" stroke-width="1.5"></path><path d="M1566.39 98.45L1564.33 200.61" stroke="rgba(19, 46, 101, 0.31)" stroke-width="1.5"></path><path d="M1564.33 200.61L1564.33 200.61" stroke="rgba(19, 46, 101, 0.31)" stroke-width="1.5"></path><path d="M1564.33 200.61L1420.84 98.62" stroke="rgba(19, 46, 101, 0.31)" stroke-width="1.5"></path><path d="M1557.34 395.21L1557.34 395.21" stroke="rgba(19, 46, 101, 0.31)" stroke-width="1.5"></path><path d="M1557.34 395.21L1554.93 494.68" stroke="rgba(19, 46, 101, 0.31)" stroke-width="1.5"></path><path d="M1554.93 494.68L1554.93 494.68" stroke="rgba(19, 46, 101, 0.31)" stroke-width="1.5"></path><path d="M1544.47 676.61L1544.47 676.61" stroke="rgba(19, 46, 101, 0.31)" stroke-width="1.5"></path><path d="M1544.47 676.61L1554.93 494.68" stroke="rgba(19, 46, 101, 0.31)" stroke-width="1.5"></path><path d="M1544.47 676.61L1439.85 487.68" stroke="rgba(19, 46, 101, 0.31)" stroke-width="1.5"></path><path d="M1544.47 676.61L1557.34 395.21" stroke="rgba(19, 46, 101, 0.31)" stroke-width="1.5"></path><path d="M1544.47 676.61L1257.14 562.06" stroke="rgba(19, 46, 101, 0.31)" stroke-width="1.5"></path><circle r="5" cx="-98.23" cy="410.05" fill="rgba(19, 46, 101, 0.31)"></circle><circle r="5" cx="-69.47" cy="490.74" fill="rgba(19, 46, 101, 0.31)"></circle><circle r="5" cx="-61.42" cy="650.13" fill="rgba(19, 46, 101, 0.31)"></circle><circle r="5" cx="88.19" cy="512.23" fill="rgba(19, 46, 101, 0.31)"></circle><circle r="5" cx="72.6" cy="643.33" fill="rgba(19, 46, 101, 0.31)"></circle><circle r="5" cx="220.36" cy="367.18" fill="rgba(19, 46, 101, 0.31)"></circle><circle r="5" cx="251.15" cy="527.02" fill="rgba(19, 46, 101, 0.31)"></circle><circle r="5" cx="249.78" cy="681.66" fill="rgba(19, 46, 101, 0.31)"></circle><circle r="5" cx="397.31" cy="359.81" fill="rgba(19, 46, 101, 0.31)"></circle><circle r="5" cx="394.81" cy="551" fill="rgba(19, 46, 101, 0.31)"></circle><circle r="5" cx="381.67" cy="676.82" fill="rgba(19, 46, 101, 0.31)"></circle><circle r="5" cx="549.24" cy="384.38" fill="rgba(19, 46, 101, 0.31)"></circle><circle r="5" cx="521.19" cy="536.82" fill="rgba(19, 46, 101, 0.31)"></circle><circle r="5" cx="554.62" cy="707.54" fill="rgba(19, 46, 101, 0.31)"></circle><circle r="5" cx="645.84" cy="256.43" fill="rgba(19, 46, 101, 0.31)"></circle><circle r="5" cx="677.61" cy="363.37" fill="rgba(19, 46, 101, 0.31)"></circle><circle r="5" cx="696.44" cy="526.48" fill="rgba(19, 46, 101, 0.31)"></circle><circle r="5" cx="645.5" cy="659.64" fill="rgba(19, 46, 101, 0.31)"></circle><circle r="5" cx="848.27" cy="245.63" fill="rgba(19, 46, 101, 0.31)"></circle><circle r="5" cx="797.78" cy="561.1" fill="rgba(19, 46, 101, 0.31)"></circle><circle r="5" cx="855.59" cy="693.99" fill="rgba(19, 46, 101, 0.31)"></circle><circle r="5" cx="974.52" cy="-39.05" fill="rgba(19, 46, 101, 0.31)"></circle><circle r="5" cx="1006.55" cy="106.02" fill="rgba(19, 46, 101, 0.31)"></circle><circle r="5" cx="966.16" cy="215.52" fill="rgba(19, 46, 101, 0.31)"></circle><circle r="5" cx="980" cy="391.4" fill="rgba(19, 46, 101, 0.31)"></circle><circle r="5" cx="997.42" cy="547.12" fill="rgba(19, 46, 101, 0.31)"></circle><circle r="5" cx="960.32" cy="665.91" fill="rgba(19, 46, 101, 0.31)"></circle><circle r="5" cx="1150.79" cy="-47.34" fill="rgba(19, 46, 101, 0.31)"></circle><circle r="5" cx="1136.11" cy="72.47" fill="rgba(19, 46, 101, 0.31)"></circle><circle r="5" cx="1099.77" cy="256.93" fill="rgba(19, 46, 101, 0.31)"></circle><circle r="5" cx="1156.75" cy="380.66" fill="rgba(19, 46, 101, 0.31)"></circle><circle r="5" cx="1135.8" cy="673.82" fill="rgba(19, 46, 101, 0.31)"></circle><circle r="5" cx="1247.43" cy="-87.85" fill="rgba(19, 46, 101, 0.31)"></circle><circle r="5" cx="1274.07" cy="199.86" fill="rgba(19, 46, 101, 0.31)"></circle><circle r="5" cx="1297.39" cy="382.44" fill="rgba(19, 46, 101, 0.31)"></circle><circle r="5" cx="1257.14" cy="562.06" fill="rgba(19, 46, 101, 0.31)"></circle><circle r="5" cx="1264.55" cy="683.69" fill="rgba(19, 46, 101, 0.31)"></circle><circle r="5" cx="1420.84" cy="98.62" fill="rgba(19, 46, 101, 0.31)"></circle><circle r="5" cx="1436.89" cy="242.89" fill="rgba(19, 46, 101, 0.31)"></circle><circle r="5" cx="1447.18" cy="380.95" fill="rgba(19, 46, 101, 0.31)"></circle><circle r="5" cx="1439.85" cy="487.68" fill="rgba(19, 46, 101, 0.31)"></circle><circle r="5" cx="1455.64" cy="695.9" fill="rgba(19, 46, 101, 0.31)"></circle><circle r="5" cx="1566.39" cy="98.45" fill="rgba(19, 46, 101, 0.31)"></circle><circle r="5" cx="1564.33" cy="200.61" fill="rgba(19, 46, 101, 0.31)"></circle><circle r="5" cx="1557.34" cy="395.21" fill="rgba(19, 46, 101, 0.31)"></circle><circle r="5" cx="1554.93" cy="494.68" fill="rgba(19, 46, 101, 0.31)"></circle><circle r="5" cx="1544.47" cy="676.61" fill="rgba(19, 46, 101, 0.31)"></circle><path d="M663.46 401.87L663.46 401.87" stroke="hsla(228.5, 77.2%, 51.5%, 0.45)" stroke-width="1.5"></path><path d="M663.46 401.87L680.17 517.27" stroke="hsla(228.5, 77.2%, 51.5%, 0.45)" stroke-width="1.5"></path><path d="M663.46 401.87L807.37 354.92" stroke="hsla(228.5, 77.2%, 51.5%, 0.45)" stroke-width="1.5"></path><path d="M663.46 401.87L831.48 548.4" stroke="hsla(228.5, 77.2%, 51.5%, 0.45)" stroke-width="1.5"></path><path d="M663.46 401.87L944.28 393.27" stroke="hsla(228.5, 77.2%, 51.5%, 0.45)" stroke-width="1.5"></path><path d="M859.84 709.26L859.84 709.26" stroke="hsla(228.5, 77.2%, 51.5%, 0.45)" stroke-width="1.5"></path><path d="M859.84 709.26L710.89 699.83" stroke="hsla(228.5, 77.2%, 51.5%, 0.45)" stroke-width="1.5"></path><path d="M859.84 709.26L831.48 548.4" stroke="hsla(228.5, 77.2%, 51.5%, 0.45)" stroke-width="1.5"></path><path d="M1108.09 380.26L1108.09 380.26" stroke="hsla(228.5, 77.2%, 51.5%, 0.45)" stroke-width="1.5"></path><path d="M1108.09 380.26L1142.24 510.81" stroke="hsla(228.5, 77.2%, 51.5%, 0.45)" stroke-width="1.5"></path><path d="M1108.09 380.26L1132.31 218.58" stroke="hsla(228.5, 77.2%, 51.5%, 0.45)" stroke-width="1.5"></path><path d="M1108.09 380.26L944.28 393.27" stroke="hsla(228.5, 77.2%, 51.5%, 0.45)" stroke-width="1.5"></path><path d="M1249.38 60.25L1249.38 60.25" stroke="hsla(228.5, 77.2%, 51.5%, 0.45)" stroke-width="1.5"></path><path d="M1249.38 60.25L1273.45 -57.73" stroke="hsla(228.5, 77.2%, 51.5%, 0.45)" stroke-width="1.5"></path><path d="M1249.38 60.25L1275.6 228.79" stroke="hsla(228.5, 77.2%, 51.5%, 0.45)" stroke-width="1.5"></path><path d="M1434.31 42.53L1434.31 42.53" stroke="hsla(228.5, 77.2%, 51.5%, 0.45)" stroke-width="1.5"></path><path d="M1434.31 42.53L1451.37 -38.77" stroke="hsla(228.5, 77.2%, 51.5%, 0.45)" stroke-width="1.5"></path><path d="M1434.31 42.53L1560.77 105.37" stroke="hsla(228.5, 77.2%, 51.5%, 0.45)" stroke-width="1.5"></path><path d="M1434.31 42.53L1249.38 60.25" stroke="hsla(228.5, 77.2%, 51.5%, 0.45)" stroke-width="1.5"></path><path d="M1434.31 42.53L1273.45 -57.73" stroke="hsla(228.5, 77.2%, 51.5%, 0.45)" stroke-width="1.5"></path><path d="M1434.31 42.53L1598.7 -79.68" stroke="hsla(228.5, 77.2%, 51.5%, 0.45)" stroke-width="1.5"></path><path d="M1434.31 42.53L1434.33 261.63" stroke="hsla(228.5, 77.2%, 51.5%, 0.45)" stroke-width="1.5"></path><path d="M1426.06 668.77L1426.06 668.77" stroke="hsla(228.5, 77.2%, 51.5%, 0.45)" stroke-width="1.5"></path><path d="M1426.06 668.77L1444.09 526.89" stroke="hsla(228.5, 77.2%, 51.5%, 0.45)" stroke-width="1.5"></path><path d="M1426.06 668.77L1257.15 668.26" stroke="hsla(228.5, 77.2%, 51.5%, 0.45)" stroke-width="1.5"></path><path d="M1560.77 105.37L1560.77 105.37" stroke="hsla(228.5, 77.2%, 51.5%, 0.45)" stroke-width="1.5"></path><path d="M1560.77 105.37L1547.09 251.98" stroke="hsla(228.5, 77.2%, 51.5%, 0.45)" stroke-width="1.5"></path><path d="M1560.77 105.37L1451.37 -38.77" stroke="hsla(228.5, 77.2%, 51.5%, 0.45)" stroke-width="1.5"></path><path d="M-98.6 493.92L-98.6 493.92" stroke="hsla(228.5, 77.2%, 51.5%, 0.45)" stroke-width="1.5"></path><path d="M-98.6 493.92L43.46 642.07" stroke="hsla(228.5, 77.2%, 51.5%, 0.45)" stroke-width="1.5"></path><path d="M-98.6 493.92L-71.97 704.65" stroke="hsla(228.5, 77.2%, 51.5%, 0.45)" stroke-width="1.5"></path><path d="M-98.6 493.92L204.62 500.7" stroke="hsla(228.5, 77.2%, 51.5%, 0.45)" stroke-width="1.5"></path><path d="M-71.97 704.65L-71.97 704.65" stroke="hsla(228.5, 77.2%, 51.5%, 0.45)" stroke-width="1.5"></path><path d="M-71.97 704.65L43.46 642.07" stroke="hsla(228.5, 77.2%, 51.5%, 0.45)" stroke-width="1.5"></path><path d="M-71.97 704.65L233.01 694.91" stroke="hsla(228.5, 77.2%, 51.5%, 0.45)" stroke-width="1.5"></path><path d="M43.46 642.07L43.46 642.07" stroke="hsla(228.5, 77.2%, 51.5%, 0.45)" stroke-width="1.5"></path><path d="M43.46 642.07L233.01 694.91" stroke="hsla(228.5, 77.2%, 51.5%, 0.45)" stroke-width="1.5"></path><path d="M43.46 642.07L204.62 500.7" stroke="hsla(228.5, 77.2%, 51.5%, 0.45)" stroke-width="1.5"></path><path d="M43.46 642.07L389.09 688.97" stroke="hsla(228.5, 77.2%, 51.5%, 0.45)" stroke-width="1.5"></path><path d="M204.62 500.7L204.62 500.7" stroke="hsla(228.5, 77.2%, 51.5%, 0.45)" stroke-width="1.5"></path><path d="M204.62 500.7L372.43 509" stroke="hsla(228.5, 77.2%, 51.5%, 0.45)" stroke-width="1.5"></path><path d="M204.62 500.7L233.01 694.91" stroke="hsla(228.5, 77.2%, 51.5%, 0.45)" stroke-width="1.5"></path><path d="M204.62 500.7L389.09 688.97" stroke="hsla(228.5, 77.2%, 51.5%, 0.45)" stroke-width="1.5"></path><path d="M233.01 694.91L233.01 694.91" stroke="hsla(228.5, 77.2%, 51.5%, 0.45)" stroke-width="1.5"></path><path d="M233.01 694.91L389.09 688.97" stroke="hsla(228.5, 77.2%, 51.5%, 0.45)" stroke-width="1.5"></path><path d="M233.01 694.91L372.43 509" stroke="hsla(228.5, 77.2%, 51.5%, 0.45)" stroke-width="1.5"></path><path d="M233.01 694.91L500.44 680.02" stroke="hsla(228.5, 77.2%, 51.5%, 0.45)" stroke-width="1.5"></path><path d="M372.43 509L372.43 509" stroke="hsla(228.5, 77.2%, 51.5%, 0.45)" stroke-width="1.5"></path><path d="M372.43 509L389.09 688.97" stroke="hsla(228.5, 77.2%, 51.5%, 0.45)" stroke-width="1.5"></path><path d="M372.43 509L500.44 680.02" stroke="hsla(228.5, 77.2%, 51.5%, 0.45)" stroke-width="1.5"></path><path d="M389.09 688.97L389.09 688.97" stroke="hsla(228.5, 77.2%, 51.5%, 0.45)" stroke-width="1.5"></path><path d="M389.09 688.97L500.44 680.02" stroke="hsla(228.5, 77.2%, 51.5%, 0.45)" stroke-width="1.5"></path><path d="M500.44 680.02L500.44 680.02" stroke="hsla(228.5, 77.2%, 51.5%, 0.45)" stroke-width="1.5"></path><path d="M500.44 680.02L710.89 699.83" stroke="hsla(228.5, 77.2%, 51.5%, 0.45)" stroke-width="1.5"></path><path d="M680.17 517.27L680.17 517.27" stroke="hsla(228.5, 77.2%, 51.5%, 0.45)" stroke-width="1.5"></path><path d="M680.17 517.27L831.48 548.4" stroke="hsla(228.5, 77.2%, 51.5%, 0.45)" stroke-width="1.5"></path><path d="M680.17 517.27L710.89 699.83" stroke="hsla(228.5, 77.2%, 51.5%, 0.45)" stroke-width="1.5"></path><path d="M680.17 517.27L807.37 354.92" stroke="hsla(228.5, 77.2%, 51.5%, 0.45)" stroke-width="1.5"></path><path d="M710.89 699.83L710.89 699.83" stroke="hsla(228.5, 77.2%, 51.5%, 0.45)" stroke-width="1.5"></path><path d="M710.89 699.83L831.48 548.4" stroke="hsla(228.5, 77.2%, 51.5%, 0.45)" stroke-width="1.5"></path><path d="M807.37 354.92L807.37 354.92" stroke="hsla(228.5, 77.2%, 51.5%, 0.45)" stroke-width="1.5"></path><path d="M807.37 354.92L944.28 393.27" stroke="hsla(228.5, 77.2%, 51.5%, 0.45)" stroke-width="1.5"></path><path d="M807.37 354.92L831.48 548.4" stroke="hsla(228.5, 77.2%, 51.5%, 0.45)" stroke-width="1.5"></path><path d="M831.48 548.4L831.48 548.4" stroke="hsla(228.5, 77.2%, 51.5%, 0.45)" stroke-width="1.5"></path><path d="M831.48 548.4L963.89 542.53" stroke="hsla(228.5, 77.2%, 51.5%, 0.45)" stroke-width="1.5"></path><path d="M831.48 548.4L944.28 393.27" stroke="hsla(228.5, 77.2%, 51.5%, 0.45)" stroke-width="1.5"></path><path d="M944.28 393.27L944.28 393.27" stroke="hsla(228.5, 77.2%, 51.5%, 0.45)" stroke-width="1.5"></path><path d="M944.28 393.27L963.89 542.53" stroke="hsla(228.5, 77.2%, 51.5%, 0.45)" stroke-width="1.5"></path><path d="M963.89 542.53L963.89 542.53" stroke="hsla(228.5, 77.2%, 51.5%, 0.45)" stroke-width="1.5"></path><path d="M963.89 542.53L1142.24 510.81" stroke="hsla(228.5, 77.2%, 51.5%, 0.45)" stroke-width="1.5"></path><path d="M963.89 542.53L859.84 709.26" stroke="hsla(228.5, 77.2%, 51.5%, 0.45)" stroke-width="1.5"></path><path d="M963.89 542.53L1108.09 380.26" stroke="hsla(228.5, 77.2%, 51.5%, 0.45)" stroke-width="1.5"></path><path d="M963.89 542.53L807.37 354.92" stroke="hsla(228.5, 77.2%, 51.5%, 0.45)" stroke-width="1.5"></path><path d="M1132.31 218.58L1132.31 218.58" stroke="hsla(228.5, 77.2%, 51.5%, 0.45)" stroke-width="1.5"></path><path d="M1132.31 218.58L1275.6 228.79" stroke="hsla(228.5, 77.2%, 51.5%, 0.45)" stroke-width="1.5"></path><path d="M1132.31 218.58L1249.38 60.25" stroke="hsla(228.5, 77.2%, 51.5%, 0.45)" stroke-width="1.5"></path><path d="M1132.31 218.58L1309.52 339.32" stroke="hsla(228.5, 77.2%, 51.5%, 0.45)" stroke-width="1.5"></path><path d="M1142.24 510.81L1142.24 510.81" stroke="hsla(228.5, 77.2%, 51.5%, 0.45)" stroke-width="1.5"></path><path d="M1273.45 -57.73L1273.45 -57.73" stroke="hsla(228.5, 77.2%, 51.5%, 0.45)" stroke-width="1.5"></path><path d="M1273.45 -57.73L1451.37 -38.77" stroke="hsla(228.5, 77.2%, 51.5%, 0.45)" stroke-width="1.5"></path><path d="M1273.45 -57.73L1275.6 228.79" stroke="hsla(228.5, 77.2%, 51.5%, 0.45)" stroke-width="1.5"></path><path d="M1275.6 228.79L1275.6 228.79" stroke="hsla(228.5, 77.2%, 51.5%, 0.45)" stroke-width="1.5"></path><path d="M1275.6 228.79L1309.52 339.32" stroke="hsla(228.5, 77.2%, 51.5%, 0.45)" stroke-width="1.5"></path><path d="M1275.6 228.79L1434.33 261.63" stroke="hsla(228.5, 77.2%, 51.5%, 0.45)" stroke-width="1.5"></path><path d="M1275.6 228.79L1414.08 354.81" stroke="hsla(228.5, 77.2%, 51.5%, 0.45)" stroke-width="1.5"></path><path d="M1275.6 228.79L1108.09 380.26" stroke="hsla(228.5, 77.2%, 51.5%, 0.45)" stroke-width="1.5"></path><path d="M1309.52 339.32L1309.52 339.32" stroke="hsla(228.5, 77.2%, 51.5%, 0.45)" stroke-width="1.5"></path><path d="M1309.52 339.32L1414.08 354.81" stroke="hsla(228.5, 77.2%, 51.5%, 0.45)" stroke-width="1.5"></path><path d="M1257.15 668.26L1257.15 668.26" stroke="hsla(228.5, 77.2%, 51.5%, 0.45)" stroke-width="1.5"></path><path d="M1257.15 668.26L1142.24 510.81" stroke="hsla(228.5, 77.2%, 51.5%, 0.45)" stroke-width="1.5"></path><path d="M1257.15 668.26L1444.09 526.89" stroke="hsla(228.5, 77.2%, 51.5%, 0.45)" stroke-width="1.5"></path><path d="M1257.15 668.26L963.89 542.53" stroke="hsla(228.5, 77.2%, 51.5%, 0.45)" stroke-width="1.5"></path><path d="M1257.15 668.26L1108.09 380.26" stroke="hsla(228.5, 77.2%, 51.5%, 0.45)" stroke-width="1.5"></path><path d="M1257.15 668.26L1309.52 339.32" stroke="hsla(228.5, 77.2%, 51.5%, 0.45)" stroke-width="1.5"></path><path d="M1451.37 -38.77L1451.37 -38.77" stroke="hsla(228.5, 77.2%, 51.5%, 0.45)" stroke-width="1.5"></path><path d="M1451.37 -38.77L1598.7 -79.68" stroke="hsla(228.5, 77.2%, 51.5%, 0.45)" stroke-width="1.5"></path><path d="M1451.37 -38.77L1249.38 60.25" stroke="hsla(228.5, 77.2%, 51.5%, 0.45)" stroke-width="1.5"></path><path d="M1434.33 261.63L1434.33 261.63" stroke="hsla(228.5, 77.2%, 51.5%, 0.45)" stroke-width="1.5"></path><path d="M1434.33 261.63L1414.08 354.81" stroke="hsla(228.5, 77.2%, 51.5%, 0.45)" stroke-width="1.5"></path><path d="M1434.33 261.63L1547.09 251.98" stroke="hsla(228.5, 77.2%, 51.5%, 0.45)" stroke-width="1.5"></path><path d="M1434.33 261.63L1309.52 339.32" stroke="hsla(228.5, 77.2%, 51.5%, 0.45)" stroke-width="1.5"></path><path d="M1414.08 354.81L1414.08 354.81" stroke="hsla(228.5, 77.2%, 51.5%, 0.45)" stroke-width="1.5"></path><path d="M1444.09 526.89L1444.09 526.89" stroke="hsla(228.5, 77.2%, 51.5%, 0.45)" stroke-width="1.5"></path><path d="M1444.09 526.89L1593.48 550.02" stroke="hsla(228.5, 77.2%, 51.5%, 0.45)" stroke-width="1.5"></path><path d="M1444.09 526.89L1414.08 354.81" stroke="hsla(228.5, 77.2%, 51.5%, 0.45)" stroke-width="1.5"></path><path d="M1444.09 526.89L1563.5 392.13" stroke="hsla(228.5, 77.2%, 51.5%, 0.45)" stroke-width="1.5"></path><path d="M1444.09 526.89L1309.52 339.32" stroke="hsla(228.5, 77.2%, 51.5%, 0.45)" stroke-width="1.5"></path><path d="M1598.7 -79.68L1598.7 -79.68" stroke="hsla(228.5, 77.2%, 51.5%, 0.45)" stroke-width="1.5"></path><path d="M1598.7 -79.68L1560.77 105.37" stroke="hsla(228.5, 77.2%, 51.5%, 0.45)" stroke-width="1.5"></path><path d="M1598.7 -79.68L1273.45 -57.73" stroke="hsla(228.5, 77.2%, 51.5%, 0.45)" stroke-width="1.5"></path><path d="M1598.7 -79.68L1547.09 251.98" stroke="hsla(228.5, 77.2%, 51.5%, 0.45)" stroke-width="1.5"></path><path d="M1598.7 -79.68L1249.38 60.25" stroke="hsla(228.5, 77.2%, 51.5%, 0.45)" stroke-width="1.5"></path><path d="M1547.09 251.98L1547.09 251.98" stroke="hsla(228.5, 77.2%, 51.5%, 0.45)" stroke-width="1.5"></path><path d="M1547.09 251.98L1563.5 392.13" stroke="hsla(228.5, 77.2%, 51.5%, 0.45)" stroke-width="1.5"></path><path d="M1547.09 251.98L1414.08 354.81" stroke="hsla(228.5, 77.2%, 51.5%, 0.45)" stroke-width="1.5"></path><path d="M1547.09 251.98L1434.31 42.53" stroke="hsla(228.5, 77.2%, 51.5%, 0.45)" stroke-width="1.5"></path><path d="M1563.5 392.13L1563.5 392.13" stroke="hsla(228.5, 77.2%, 51.5%, 0.45)" stroke-width="1.5"></path><path d="M1563.5 392.13L1414.08 354.81" stroke="hsla(228.5, 77.2%, 51.5%, 0.45)" stroke-width="1.5"></path><path d="M1563.5 392.13L1593.48 550.02" stroke="hsla(228.5, 77.2%, 51.5%, 0.45)" stroke-width="1.5"></path><path d="M1563.5 392.13L1434.33 261.63" stroke="hsla(228.5, 77.2%, 51.5%, 0.45)" stroke-width="1.5"></path><path d="M1563.5 392.13L1309.52 339.32" stroke="hsla(228.5, 77.2%, 51.5%, 0.45)" stroke-width="1.5"></path><path d="M1593.48 550.02L1593.48 550.02" stroke="hsla(228.5, 77.2%, 51.5%, 0.45)" stroke-width="1.5"></path><path d="M1593.48 550.02L1612.3 689.36" stroke="hsla(228.5, 77.2%, 51.5%, 0.45)" stroke-width="1.5"></path><path d="M1612.3 689.36L1612.3 689.36" stroke="hsla(228.5, 77.2%, 51.5%, 0.45)" stroke-width="1.5"></path><path d="M1612.3 689.36L1426.06 668.77" stroke="hsla(228.5, 77.2%, 51.5%, 0.45)" stroke-width="1.5"></path><circle r="25" cx="663.46" cy="401.87" fill="url(&quot;#SvgjsRadialGradient1015&quot;)"></circle><circle r="25" cx="859.84" cy="709.26" fill="url(&quot;#SvgjsRadialGradient1015&quot;)"></circle><circle r="25" cx="1108.09" cy="380.26" fill="url(&quot;#SvgjsRadialGradient1015&quot;)"></circle><circle r="25" cx="1249.38" cy="60.25" fill="url(&quot;#SvgjsRadialGradient1015&quot;)"></circle><circle r="25" cx="1434.31" cy="42.53" fill="url(&quot;#SvgjsRadialGradient1015&quot;)"></circle><circle r="25" cx="1426.06" cy="668.77" fill="url(&quot;#SvgjsRadialGradient1015&quot;)"></circle><circle r="25" cx="1560.77" cy="105.37" fill="url(&quot;#SvgjsRadialGradient1015&quot;)"></circle><circle r="5" cx="-98.6" cy="493.92" fill="rgba(203, 210, 238, 0.725)"></circle><circle r="5" cx="-71.97" cy="704.65" fill="rgba(203, 210, 238, 0.725)"></circle><circle r="5" cx="43.46" cy="642.07" fill="rgba(203, 210, 238, 0.725)"></circle><circle r="5" cx="204.62" cy="500.7" fill="rgba(203, 210, 238, 0.725)"></circle><circle r="5" cx="233.01" cy="694.91" fill="rgba(203, 210, 238, 0.725)"></circle><circle r="5" cx="372.43" cy="509" fill="rgba(203, 210, 238, 0.725)"></circle><circle r="5" cx="389.09" cy="688.97" fill="rgba(203, 210, 238, 0.725)"></circle><circle r="5" cx="500.44" cy="680.02" fill="rgba(203, 210, 238, 0.725)"></circle><circle r="5" cx="680.17" cy="517.27" fill="rgba(203, 210, 238, 0.725)"></circle><circle r="5" cx="710.89" cy="699.83" fill="rgba(203, 210, 238, 0.725)"></circle><circle r="5" cx="807.37" cy="354.92" fill="rgba(203, 210, 238, 0.725)"></circle><circle r="5" cx="831.48" cy="548.4" fill="rgba(203, 210, 238, 0.725)"></circle><circle r="5" cx="944.28" cy="393.27" fill="rgba(203, 210, 238, 0.725)"></circle><circle r="5" cx="963.89" cy="542.53" fill="rgba(203, 210, 238, 0.725)"></circle><circle r="5" cx="1132.31" cy="218.58" fill="rgba(203, 210, 238, 0.725)"></circle><circle r="5" cx="1142.24" cy="510.81" fill="rgba(203, 210, 238, 0.725)"></circle><circle r="5" cx="1273.45" cy="-57.73" fill="rgba(203, 210, 238, 0.725)"></circle><circle r="5" cx="1275.6" cy="228.79" fill="rgba(203, 210, 238, 0.725)"></circle><circle r="5" cx="1309.52" cy="339.32" fill="rgba(203, 210, 238, 0.725)"></circle><circle r="5" cx="1257.15" cy="668.26" fill="rgba(203, 210, 238, 0.725)"></circle><circle r="5" cx="1451.37" cy="-38.77" fill="rgba(203, 210, 238, 0.725)"></circle><circle r="5" cx="1434.33" cy="261.63" fill="rgba(203, 210, 238, 0.725)"></circle><circle r="5" cx="1414.08" cy="354.81" fill="rgba(203, 210, 238, 0.725)"></circle><circle r="5" cx="1444.09" cy="526.89" fill="rgba(203, 210, 238, 0.725)"></circle><circle r="5" cx="1598.7" cy="-79.68" fill="rgba(203, 210, 238, 0.725)"></circle><circle r="5" cx="1547.09" cy="251.98" fill="rgba(203, 210, 238, 0.725)"></circle><circle r="5" cx="1563.5" cy="392.13" fill="rgba(203, 210, 238, 0.725)"></circle><circle r="5" cx="1593.48" cy="550.02" fill="rgba(203, 210, 238, 0.725)"></circle><circle r="5" cx="1612.3" cy="689.36" fill="rgba(203, 210, 238, 0.725)"></circle></g><defs><mask id="SvgjsMask1014"><rect width="1440" height="560" fill="#ffffff"></rect></mask><radialGradient id="SvgjsRadialGradient1015"><stop stop-color="#ffffff" offset="0.1"></stop><stop stop-color="rgba(23, 53, 179, 0.45)" offset="0.2"></stop><stop stop-color="rgba(23, 53, 179, 0)" offset="1"></stop></radialGradient></defs></svg>